<?xml version="1.0" encoding="UTF-8" standalone="yes"?>
<!DOCTYPE svg PUBLIC "-//W3C//DTD SVG 1.0//EN" "http://www.w3.org/TR/2001/REC-SVG-20010904/DTD/svg10.dtd">
<svg width="2400" height="2400" xmlns="http://www.w3.org/2000/svg" style="background-color:black">
<circle cx="1200" cy="1200" r="1045" style="fill:gainsboro;stroke:black;stroke-width:0;fill-opacity:0.085;"/>
<circle cx="1200" cy="1200" r="1041" style="fill:black;stroke:black;stroke-width:0;fill-opacity:1;"/>
<circle cx="1200" cy="1200" r="1040" style="fill:grey;stroke:black;stroke-width:0;fill-opacity:0.085;"/>
<circle cx="1200" cy="1200" r="1002" style="fill:black;stroke:black;stroke-width:0;fill-opacity:1;"/>
<circle cx="1200" cy="1200" r="1001" style="fill:gainsboro;stroke:black;stroke-width:0;fill-opacity:0.085;"/>
<circle cx="1200" cy="1200" r="990" style="fill:black;stroke:black;stroke-width:0;fill-opacity:1;"/>
<circle cx="1200" cy="1200" r="986" style="fill:grey;stroke:black;stroke-width:0;fill-opacity:0.085;"/>
<circle cx="1200" cy="1200" r="975" style="fill:black;stroke:black;stroke-width:0;fill-opacity:1;"/>
<circle cx="1200" cy="1200" r="974" style="fill:gainsboro;stroke:black;stroke-width:0;fill-opacity:0.085;"/>
<circle cx="1200" cy="1200" r="969" style="fill:black;stroke:black;stroke-width:0;fill-opacity:1;"/>
<circle cx="1200" cy="1200" r="968" style="fill:grey;stroke:black;stroke-width:0;fill-opacity:0.085;"/>
<circle cx="1200" cy="1200" r="948" style="fill:black;stroke:black;stroke-width:0;fill-opacity:1;"/>
<circle cx="1200" cy="1200" r="946" style="fill:gainsboro;stroke:black;stroke-width:0;fill-opacity:0.085;"/>
<circle cx="1200" cy="1200" r="939" style="fill:black;stroke:black;stroke-width:0;fill-opacity:1;"/>
<circle cx="1200" cy="1200" r="939" style="fill:grey;stroke:black;stroke-width:0;fill-opacity:0.085;"/>
<circle cx="1200" cy="1200" r="913" style="fill:black;stroke:black;stroke-width:0;fill-opacity:1;"/>
<circle cx="1200" cy="1200" r="913" style="fill:gainsboro;stroke:black;stroke-width:0;fill-opacity:0.085;"/>
<circle cx="1200" cy="1200" r="795" style="fill:black;stroke:black;stroke-width:0;fill-opacity:1;"/>
<circle cx="1200" cy="1200" r="795" style="fill:grey;stroke:black;stroke-width:0;fill-opacity:0.085;"/>
<circle cx="1200" cy="1200" r="140" style="fill:black;stroke:black;stroke-width:0;fill-opacity:1;"/>
<text font-size="4.5em" x="70" y="80" fill="white">SARS-CoV-2</text>
<text font-size="3.5em" x="70" y="140" fill="white">2020 mutation timemap</text>
<text font-size="2.5em" x="70" y="190" fill="white">GISAID update 2021-01-11</text>
<text font-size="2.0em" x="70" y="230" fill="white">@WarrenRene | ntedit v1.3.4</text>
<line x1="1200" y1="82.9384615384615" x2="1200" y2="132.938461538462" style="stroke:white;stroke-width:4" />
<text font-size="3.0em" x="1176" y="72.9384615384615" fill="white">Winter</text>
<line x1="2267" y1="1200" x2="2317" y2="1200" style="stroke:white;stroke-width:4" />
<text font-size="3.0em" x="2267" y="1245" fill="white">Spring</text>
<line x1="1200" y1="2267" x2="1200" y2="2317" style="stroke:white;stroke-width:4" />
<text font-size="3.0em" x="1045" y="2352" fill="white">Summer</text>
<line x1="133" y1="1200" x2="73" y2="1200" style="stroke:white;stroke-width:4" />
<text font-size="3.0em" x="59" y="1185" fill="white">Fall</text>
<g>	<title>orf1ab gene (266-21555)</title>
	<line x1="1206" y1="1060" x2="1206" y2="405" style="stroke:grey;stroke-width:7" />
</g><g>	<title>S gene (21563-25384)</title>
	<line x1="1206" y1="405" x2="1206" y2="287" style="stroke:gainsboro;stroke-width:7" />
</g><g>	<title>ORF3a gene (25393-26220)</title>
	<line x1="1206" y1="287" x2="1206" y2="261" style="stroke:grey;stroke-width:7" />
</g><g>	<title>E gene (26245-26472)</title>
	<line x1="1206" y1="261" x2="1206" y2="254" style="stroke:gainsboro;stroke-width:7" />
</g><g>	<title>M gene (26523-27191)</title>
	<line x1="1206" y1="252" x2="1206" y2="232" style="stroke:grey;stroke-width:7" />
</g><g>	<title>ORF6 gene (27202-27387)</title>
	<line x1="1206" y1="231" x2="1206" y2="226" style="stroke:gainsboro;stroke-width:7" />
</g><g>	<title>ORF7a gene (27394-27759)</title>
	<line x1="1206" y1="225" x2="1206" y2="214" style="stroke:grey;stroke-width:7" />
</g><g>	<title>ORF8 gene (27894-28259)</title>
	<line x1="1206" y1="210" x2="1206" y2="199" style="stroke:gainsboro;stroke-width:7" />
</g><g>	<title>N gene (28274-29533)</title>
	<line x1="1206" y1="198" x2="1206" y2="160" style="stroke:grey;stroke-width:7" />
</g><g>	<title>ORF10 gene (29558-29674)</title>
	<line x1="1206" y1="159" x2="1206" y2="155" style="stroke:gainsboro;stroke-width:7" />
</g><line x1="1200" y1="147.938461538462" x2="1200" y2="1068" style="stroke:white;stroke-width:2" />
<text font-size="2.0em" x="1202" y="155.938461538462" fill="white">- 29.9 kb</text>
<text font-size="2.0em" x="1202" y="1074" fill="white">- 1</text>
<text font-size="3.0em" x="1980" y="2060" fill="white">Top Continents</text>
<circle cx="1940" cy="2105" r="1.20411998265592" style="fill:white;stroke:lightgrey;stroke-width:0.2;" />
<circle cx="1993" cy="2105" r="4.1655707406329" style="fill:white;stroke:lightgrey;stroke-width:0.2;" />
<circle cx="2046" cy="2105" r="8.01728549513057" style="fill:white;stroke:lightgrey;stroke-width:0.2;" />
<text font-size="2.5em" x="1930" y="2160" fill="white">1      10        100% fraction sampled</text>
<text font-size="2.5em" x="1085" y="1180" fill="white">MN908947 vs.</text>
<text font-size="2.5em" x="1075" y="1220" fill="white">0 viruses</text>
<text font-size="1.8em" x="70" y="300" fill="white">Distinct missense variants mapped: 0</text>
<text font-size="1.8em" x="70" y="330" fill="white">Genomes/year≥10, Genomes/day≥2</text>
<text font-size="1.8em" x="70" y="360" fill="white">Data from 6 continents</text>
</svg>
