<?xml version="1.0" encoding="UTF-8" standalone="yes"?>
<!DOCTYPE svg PUBLIC "-//W3C//DTD SVG 1.0//EN" "http://www.w3.org/TR/2001/REC-SVG-20010904/DTD/svg10.dtd">
<svg width="2400" height="2400" xmlns="http://www.w3.org/2000/svg" style="background-color:black">
<circle cx="1200" cy="1200" r="1045" style="fill:gainsboro;stroke:black;stroke-width:0;fill-opacity:0.085;"/>
<circle cx="1200" cy="1200" r="1041" style="fill:black;stroke:black;stroke-width:0;fill-opacity:1;"/>
<circle cx="1200" cy="1200" r="1040" style="fill:grey;stroke:black;stroke-width:0;fill-opacity:0.085;"/>
<circle cx="1200" cy="1200" r="1002" style="fill:black;stroke:black;stroke-width:0;fill-opacity:1;"/>
<circle cx="1200" cy="1200" r="1001" style="fill:gainsboro;stroke:black;stroke-width:0;fill-opacity:0.085;"/>
<circle cx="1200" cy="1200" r="990" style="fill:black;stroke:black;stroke-width:0;fill-opacity:1;"/>
<circle cx="1200" cy="1200" r="986" style="fill:grey;stroke:black;stroke-width:0;fill-opacity:0.085;"/>
<circle cx="1200" cy="1200" r="975" style="fill:black;stroke:black;stroke-width:0;fill-opacity:1;"/>
<circle cx="1200" cy="1200" r="974" style="fill:gainsboro;stroke:black;stroke-width:0;fill-opacity:0.085;"/>
<circle cx="1200" cy="1200" r="969" style="fill:black;stroke:black;stroke-width:0;fill-opacity:1;"/>
<circle cx="1200" cy="1200" r="968" style="fill:grey;stroke:black;stroke-width:0;fill-opacity:0.085;"/>
<circle cx="1200" cy="1200" r="948" style="fill:black;stroke:black;stroke-width:0;fill-opacity:1;"/>
<circle cx="1200" cy="1200" r="946" style="fill:gainsboro;stroke:black;stroke-width:0;fill-opacity:0.085;"/>
<circle cx="1200" cy="1200" r="939" style="fill:black;stroke:black;stroke-width:0;fill-opacity:1;"/>
<circle cx="1200" cy="1200" r="939" style="fill:grey;stroke:black;stroke-width:0;fill-opacity:0.085;"/>
<circle cx="1200" cy="1200" r="913" style="fill:black;stroke:black;stroke-width:0;fill-opacity:1;"/>
<circle cx="1200" cy="1200" r="913" style="fill:gainsboro;stroke:black;stroke-width:0;fill-opacity:0.085;"/>
<circle cx="1200" cy="1200" r="795" style="fill:black;stroke:black;stroke-width:0;fill-opacity:1;"/>
<circle cx="1200" cy="1200" r="795" style="fill:grey;stroke:black;stroke-width:0;fill-opacity:0.085;"/>
<circle cx="1200" cy="1200" r="140" style="fill:black;stroke:black;stroke-width:0;fill-opacity:1;"/>
<text font-size="4.5em" x="70" y="80" fill="white">SARS-CoV-2</text>
<text font-size="3.5em" x="70" y="140" fill="white">2021 mutation timemap</text>
<text font-size="2.5em" x="70" y="190" fill="white">GISAID update 2021-01-15</text>
<text font-size="2.0em" x="70" y="230" fill="white">@WarrenRene | ntedit v1.3.4</text>
<line x1="1200" y1="82.9384615384615" x2="1200" y2="132.938461538462" style="stroke:white;stroke-width:4" />
<text font-size="3.0em" x="1176" y="72.9384615384615" fill="white">Winter</text>
<line x1="2267" y1="1200" x2="2317" y2="1200" style="stroke:white;stroke-width:4" />
<text font-size="3.0em" x="2267" y="1245" fill="white">Spring</text>
<line x1="1200" y1="2267" x2="1200" y2="2317" style="stroke:white;stroke-width:4" />
<text font-size="3.0em" x="1045" y="2352" fill="white">Summer</text>
<line x1="133" y1="1200" x2="73" y2="1200" style="stroke:white;stroke-width:4" />
<text font-size="3.0em" x="59" y="1185" fill="white">Fall</text>
<g>	<title>orf1ab gene (266-21555)</title>
	<line x1="1208" y1="1060" x2="1208" y2="405" style="stroke:grey;stroke-width:8" />
</g><g>	<title>S gene (21563-25384)</title>
	<line x1="1208" y1="405" x2="1208" y2="287" style="stroke:gainsboro;stroke-width:8" />
</g><g>	<title>ORF3a gene (25393-26220)</title>
	<line x1="1208" y1="287" x2="1208" y2="261" style="stroke:grey;stroke-width:8" />
</g><g>	<title>E gene (26245-26472)</title>
	<line x1="1208" y1="261" x2="1208" y2="254" style="stroke:gainsboro;stroke-width:8" />
</g><g>	<title>M gene (26523-27191)</title>
	<line x1="1208" y1="252" x2="1208" y2="232" style="stroke:grey;stroke-width:8" />
</g><g>	<title>ORF6 gene (27202-27387)</title>
	<line x1="1208" y1="231" x2="1208" y2="226" style="stroke:gainsboro;stroke-width:8" />
</g><g>	<title>ORF7a gene (27394-27759)</title>
	<line x1="1208" y1="225" x2="1208" y2="214" style="stroke:grey;stroke-width:8" />
</g><g>	<title>ORF8 gene (27894-28259)</title>
	<line x1="1208" y1="210" x2="1208" y2="199" style="stroke:gainsboro;stroke-width:8" />
</g><g>	<title>N gene (28274-29533)</title>
	<line x1="1208" y1="198" x2="1208" y2="160" style="stroke:grey;stroke-width:8" />
</g><g>	<title>ORF10 gene (29558-29674)</title>
	<line x1="1208" y1="159" x2="1208" y2="155" style="stroke:gainsboro;stroke-width:8" />
</g><line x1="1200" y1="147.938461538462" x2="1200" y2="1068" style="stroke:white;stroke-width:3" />
<line x1="1204" y1="147.938461538462" x2="1210" y2="147.938461538462" style="stroke:white;stroke-width:2" />
<line x1="1210" y1="147.938461538462" x2="1215" y2="122.938461538462" style="stroke:white;stroke-width:2" />
<line x1="1204" y1="1068" x2="1210" y2="1068" style="stroke:white;stroke-width:2" />
<line x1="1210" y1="1068" x2="1215" y2="1093" style="stroke:white;stroke-width:2" />
<text font-size="2.0em" x="1215" y="122.938461538462" fill="white">29.9 kb</text>
<text font-size="2.0em" x="1215" y="1113" fill="white">1</text>
<text font-size="3.0em" x="1980" y="2060" fill="white">Top Continents</text>
<circle cx="1940" cy="2090" r="8" style="fill:cyan;stroke:black;stroke-width:0;fill-opacity:0.6;" />
<text font-size="2.0em" x="1955" y="2100" fill="white">Europe</text>
<circle cx="1940" cy="2120" r="8" style="fill:fuchsia;stroke:black;stroke-width:0;fill-opacity:0.6;" />
<text font-size="2.0em" x="1955" y="2130" fill="white">North America</text>
<circle cx="1940" cy="2165" r="1.20411998265592" style="fill:white;stroke:lightgrey;stroke-width:0.2;" />
<circle cx="1993" cy="2165" r="4.1655707406329" style="fill:white;stroke:lightgrey;stroke-width:0.2;" />
<circle cx="2046" cy="2165" r="8.01728549513057" style="fill:white;stroke:lightgrey;stroke-width:0.2;" />
<text font-size="2.5em" x="1930" y="2220" fill="white">1      10        100% fraction sampled</text>
<text font-size="2.5em" x="1085" y="1180" fill="white">MN908947 vs.</text>
<text font-size="2.5em" x="1085" y="1220" fill="white">1,910  viral</text>
<text font-size="2.5em" x="1135" y="1260" fill="white">genomes</text>
<g>
	<title>2021-01-02  ATTA21993A  Europe=2 [1.2%]  surface glycoprotein, Y145H</title>
	<circle cx="1228.23315591699" cy="391.508196185044" r="1.37349198941742" style="fill:cyan;stroke:black;stroke-width:0;fill-opacity:0.15;"/>
</g>
<g>
	<title>2021-01-02  CA28253C  Europe=2 [1.2%]  ORF8 protein, I121S</title>
	<circle cx="1234.95533589723" cy="199.010147657674" r="1.37349198941742" style="fill:cyan;stroke:black;stroke-width:0;fill-opacity:0.15;"/>
</g>
<g>
	<title>2021-01-03  TGTT26157T  Europe=3 [5.6%]  ORF3a protein, V256N</title>
	<circle cx="1249.04442717954" cy="264.176581215837" r="3.26643800881128" style="fill:cyan;stroke:black;stroke-width:0;fill-opacity:0.15;"/>
</g>
<g>
	<title>2021-01-04  AGTT6512A  North America=3 [1.7%]  orf1ab polyprotein, S2083I</title>
	<circle cx="1223.20422269685" cy="868.164155465878" r="1.74091637356594" style="fill:fuchsia;stroke:black;stroke-width:0;fill-opacity:0.15;"/>
</g>
<g>
	<title>2021-01-04  TT11083T  Europe=18 [1.8%]  orf1ab polyprotein, L3606F</title>
	<circle cx="1233.01520243483" cy="727.860608581643" r="1.77533921537602" style="fill:cyan;stroke:black;stroke-width:0;fill-opacity:0.15;"/>
</g>
<g>
	<title>2021-01-04  ATTA21993A  Europe=5 [0.5%]  surface glycoprotein, Y145H</title>
	<circle cx="1256.43191408248" cy="392.986030479037" r="0.69748511464563" style="fill:cyan;stroke:black;stroke-width:0;fill-opacity:0.15;"/>
</g>
<g>
	<title>2021-01-04  CA28253C  North America=5 [2.9%]  ORF8 protein, I121S</title>
	<circle cx="1269.86808410212" cy="200.83984725976" r="2.35244259301088" style="fill:fuchsia;stroke:black;stroke-width:0;fill-opacity:0.15;"/>
</g>
<g>
	<title>2021-01-04  TT29589T  Europe=20 [2.0%]  ORF10 protein, F11L</title>
	<circle cx="1272.73561176126" cy="159.832291224464" r="1.89469782009953" style="fill:cyan;stroke:black;stroke-width:0;fill-opacity:0.15;"/>
</g>
<text font-size="1.8em" x="70" y="300" fill="white">Distinct missense variants mapped: 6</text>
<text font-size="1.8em" x="70" y="330" fill="white">Genomes/year≥10, Genomes/day≥2</text>
<text font-size="1.8em" x="70" y="360" fill="white">Data from 6 continents</text>
</svg>
