<?xml version="1.0" encoding="UTF-8" standalone="yes"?>
<!DOCTYPE svg PUBLIC "-//W3C//DTD SVG 1.0//EN" "http://www.w3.org/TR/2001/REC-SVG-20010904/DTD/svg10.dtd">
<svg width="2400" height="2400" xmlns="http://www.w3.org/2000/svg" style="background-color:black">
<defs>
	<style type="text/css"><![CDATA[
	.sb {
	stroke-width:0.8;
	stroke-opacity:50%;
	}
	.cv {
	stroke: none;
	fill-opacity:0.25;
	}
	]]></style>
</defs>
<circle cx="1200" cy="1200" r="1052" style="fill:grey;stroke:black;stroke-width:0;fill-opacity:0.085;"/>
<circle cx="1200" cy="1200" r="1028" style="fill:black;stroke:black;stroke-width:0;fill-opacity:1;"/>
<circle cx="1200" cy="1200" r="1026" style="fill:gainsboro;stroke:black;stroke-width:0;fill-opacity:0.085;"/>
<circle cx="1200" cy="1200" r="175" style="fill:black;stroke:black;stroke-width:0;fill-opacity:1;"/>
<circle cx="1200" cy="1200" r="173" style="fill:grey;stroke:black;stroke-width:0;fill-opacity:0.085;"/>
<circle cx="1200" cy="1200" r="161" style="fill:black;stroke:black;stroke-width:0;fill-opacity:1;"/>
<text font-size="4.0em" x="50" y="60" fill="white">SARS-CoV-2 mutations 2021 timemap</text>
<text font-size="2.8em" x="50" y="105" fill="white">Genbank MN908947 vs 4 GISAID genomes</text>
<line x1="1200" y1="83.1314031180401" x2="1200" y2="133.13140311804" style="stroke:white;stroke-width:4" />
<text font-size="3.0em" x="1176" y="73.1314031180401" fill="white">Winter</text>
<line x1="2267" y1="1200" x2="2317" y2="1200" style="stroke:white;stroke-width:4" />
<text font-size="3.0em" x="2267" y="1245" fill="white">Spring</text>
<line x1="1200" y1="2267" x2="1200" y2="2317" style="stroke:white;stroke-width:4" />
<text font-size="3.0em" x="1045" y="2352" fill="white">Summer</text>
<line x1="133" y1="1200" x2="73" y2="1200" style="stroke:white;stroke-width:4" />
<text font-size="3.0em" x="59" y="1185" fill="white">Fall</text>
<g>	<title>orf1ab gene (21500-21555)</title>
	<line x1="1208" y1="1039" x2="1208" y2="1027" style="stroke:grey;stroke-width:8" />
</g><g>	<title>S gene (21563-25384)</title>
	<line x1="1208" y1="1025" x2="1208" y2="174" style="stroke:gainsboro;stroke-width:8" />
</g><g>	<title>ORF3a gene (25393-25500)</title>
	<line x1="1208" y1="172" x2="1208" y2="148" style="stroke:grey;stroke-width:8" />
</g><line x1="1200" y1="148.13140311804" x2="1200" y2="1039" style="stroke:white;stroke-width:3" />
<line x1="1204" y1="148.13140311804" x2="1210" y2="148.13140311804" style="stroke:white;stroke-width:2" />
<line x1="1210" y1="148.13140311804" x2="1215" y2="123.13140311804" style="stroke:white;stroke-width:2" />
<line x1="1204" y1="1039" x2="1210" y2="1039" style="stroke:white;stroke-width:2" />
<line x1="1210" y1="1039" x2="1215" y2="1064" style="stroke:white;stroke-width:2" />
<text font-size="2.0em" x="1215" y="123.13140311804" fill="white">25.5 kb</text>
<text font-size="2.0em" x="1215" y="1084" fill="white">21.5 kb</text>
<text font-size="2.5em" x="110" y="175" fill="white">Top countries</text>
<circle cx="60" cy="205" r="8" style="fill:cyan;stroke:black;stroke-width:0;fill-opacity:0.6;" />
<text font-size="2.0em" x="75" y="215" fill="white">Brazil</text>
<circle cx="60" cy="235" r="8" style="fill:fuchsia;stroke:black;stroke-width:0;fill-opacity:0.6;" />
<text font-size="2.0em" x="75" y="245" fill="white">Ecuador</text>
<circle cx="60" cy="290" r="1" style="fill:white;stroke:lightgrey;stroke-width:0.2;" />
<circle cx="100" cy="290" r="4" style="fill:white;stroke:lightgrey;stroke-width:0.2;" />
<circle cx="140" cy="290" r="8" style="fill:white;stroke:lightgrey;stroke-width:0.2;" />
<text font-size="2.0em" x="50" y="335" fill="white">1      10        100% daily</text>
<text font-size="2.0em" x="50" y="365" fill="white">sample fraction</text>
<g>
	<title>2021-01-07 Brazil=2</title>
	<line x1="1202" y1="1180" x2="1203" y2="1178" style="stroke:cyan;" class="sb" />
</g>
<g>
	<title>2021-01-07  ATTA21993A  Brazil=2 [100.0%]  surface glycoprotein, Y145H</title>
	<circle cx="1233" cy="931" r="8" style="fill:cyan;" class="cv" />
</g>
<g>
	<title>2021-01-07  A23063T  Brazil=2 [100.0%]  surface glycoprotein, N501Y</title>
	<circle cx="1261" cy="694" r="8" style="fill:cyan;" class="cv" />
</g>
<g>
	<title>2021-01-07  C23271A  Brazil=2 [100.0%]  surface glycoprotein, A570D</title>
	<circle cx="1267" cy="648" r="8" style="fill:cyan;" class="cv" />
</g>
<g>
	<title>2021-01-07  A23403G  Brazil=2 [100.0%]  surface glycoprotein, D614G</title>
	<circle cx="1270" cy="619" r="8" style="fill:cyan;" class="cv" />
</g>
<g>
	<title>2021-01-07  C23604A  Brazil=2 [100.0%]  surface glycoprotein, P681H</title>
	<circle cx="1276" cy="574" r="8" style="fill:cyan;" class="cv" />
</g>
<g>
	<title>2021-01-07  C23709T  Brazil=2 [100.0%]  surface glycoprotein, T716I</title>
	<circle cx="1279" cy="551" r="8" style="fill:cyan;" class="cv" />
</g>
<g>
	<title>2021-01-07  T24506G  Brazil=2 [100.0%]  surface glycoprotein, S982A</title>
	<circle cx="1300" cy="375" r="8" style="fill:cyan;" class="cv" />
</g>
<g>
	<title>2021-01-07  G24914C  Brazil=2 [100.0%]  surface glycoprotein, D1118H</title>
	<circle cx="1311" cy="285" r="8" style="fill:cyan;" class="cv" />
</g>
<rect x="1865" y="140" width="500" height="135" rx="15" style="fill:gainsboro;stroke-width:0;fill-opacity:0.15;" />
<text font-size="1.8em" x="1880" y="170" fill="white">Data from 2 countries in South America</text>
<text font-size="1.8em" x="1880" y="200" fill="white">Genomes/year≥10  Genomes/day≥2</text>
<text font-size="1.8em" x="1880" y="230" fill="white">8 distinct missense variants mapped</text>
<text font-size="1.8em" x="1880" y="260" fill="white">Updated 2021-01-23</text>
</svg>
