<?xml version="1.0" encoding="UTF-8" standalone="yes"?>
<!DOCTYPE svg PUBLIC "-//W3C//DTD SVG 1.0//EN" "http://www.w3.org/TR/2001/REC-SVG-20010904/DTD/svg10.dtd">
<svg width="2400" height="2400" xmlns="http://www.w3.org/2000/svg" style="background-color:black">
<defs>
	<style type="text/css"><![CDATA[
	.sb {
	stroke-width:0.8;
	stroke-opacity:50%;
	}
	.cv {
	stroke: none;
	fill-opacity:0.15;
	}
	]]></style>
</defs>
<circle cx="1200" cy="1200" r="1045" style="fill:gainsboro;stroke:black;stroke-width:0;fill-opacity:0.085;"/>
<circle cx="1200" cy="1200" r="1041" style="fill:black;stroke:black;stroke-width:0;fill-opacity:1;"/>
<circle cx="1200" cy="1200" r="1040" style="fill:grey;stroke:black;stroke-width:0;fill-opacity:0.085;"/>
<circle cx="1200" cy="1200" r="1002" style="fill:black;stroke:black;stroke-width:0;fill-opacity:1;"/>
<circle cx="1200" cy="1200" r="1001" style="fill:gainsboro;stroke:black;stroke-width:0;fill-opacity:0.085;"/>
<circle cx="1200" cy="1200" r="990" style="fill:black;stroke:black;stroke-width:0;fill-opacity:1;"/>
<circle cx="1200" cy="1200" r="986" style="fill:grey;stroke:black;stroke-width:0;fill-opacity:0.085;"/>
<circle cx="1200" cy="1200" r="975" style="fill:black;stroke:black;stroke-width:0;fill-opacity:1;"/>
<circle cx="1200" cy="1200" r="974" style="fill:gainsboro;stroke:black;stroke-width:0;fill-opacity:0.085;"/>
<circle cx="1200" cy="1200" r="969" style="fill:black;stroke:black;stroke-width:0;fill-opacity:1;"/>
<circle cx="1200" cy="1200" r="968" style="fill:grey;stroke:black;stroke-width:0;fill-opacity:0.085;"/>
<circle cx="1200" cy="1200" r="948" style="fill:black;stroke:black;stroke-width:0;fill-opacity:1;"/>
<circle cx="1200" cy="1200" r="946" style="fill:gainsboro;stroke:black;stroke-width:0;fill-opacity:0.085;"/>
<circle cx="1200" cy="1200" r="939" style="fill:black;stroke:black;stroke-width:0;fill-opacity:1;"/>
<circle cx="1200" cy="1200" r="939" style="fill:grey;stroke:black;stroke-width:0;fill-opacity:0.085;"/>
<circle cx="1200" cy="1200" r="913" style="fill:black;stroke:black;stroke-width:0;fill-opacity:1;"/>
<circle cx="1200" cy="1200" r="913" style="fill:gainsboro;stroke:black;stroke-width:0;fill-opacity:0.085;"/>
<circle cx="1200" cy="1200" r="795" style="fill:black;stroke:black;stroke-width:0;fill-opacity:1;"/>
<circle cx="1200" cy="1200" r="795" style="fill:grey;stroke:black;stroke-width:0;fill-opacity:0.085;"/>
<circle cx="1200" cy="1200" r="140" style="fill:black;stroke:black;stroke-width:0;fill-opacity:1;"/>
<text font-size="4.0em" x="50" y="60" fill="white">SARS-CoV-2 mutations 2021 timemap</text>
<text font-size="2.8em" x="50" y="105" fill="white">Genbank MN908947 vs 22,493 GISAID genomes</text>
<line x1="1200" y1="82.9384615384615" x2="1200" y2="132.938461538462" style="stroke:white;stroke-width:4" />
<text font-size="3.0em" x="1176" y="72.9384615384615" fill="white">Winter</text>
<line x1="2267" y1="1200" x2="2317" y2="1200" style="stroke:white;stroke-width:4" />
<text font-size="3.0em" x="2267" y="1245" fill="white">Spring</text>
<line x1="1200" y1="2267" x2="1200" y2="2317" style="stroke:white;stroke-width:4" />
<text font-size="3.0em" x="1045" y="2352" fill="white">Summer</text>
<line x1="133" y1="1200" x2="73" y2="1200" style="stroke:white;stroke-width:4" />
<text font-size="3.0em" x="59" y="1185" fill="white">Fall</text>
<g>	<title>orf1ab gene (266-21555)</title>
	<line x1="1208" y1="1060" x2="1208" y2="405" style="stroke:grey;stroke-width:8" />
</g><g>	<title>S gene (21563-25384)</title>
	<line x1="1208" y1="405" x2="1208" y2="287" style="stroke:gainsboro;stroke-width:8" />
</g><g>	<title>ORF3a gene (25393-26220)</title>
	<line x1="1208" y1="287" x2="1208" y2="261" style="stroke:grey;stroke-width:8" />
</g><g>	<title>E gene (26245-26472)</title>
	<line x1="1208" y1="261" x2="1208" y2="254" style="stroke:gainsboro;stroke-width:8" />
</g><g>	<title>M gene (26523-27191)</title>
	<line x1="1208" y1="252" x2="1208" y2="232" style="stroke:grey;stroke-width:8" />
</g><g>	<title>ORF6 gene (27202-27387)</title>
	<line x1="1208" y1="231" x2="1208" y2="226" style="stroke:gainsboro;stroke-width:8" />
</g><g>	<title>ORF7a gene (27394-27759)</title>
	<line x1="1208" y1="225" x2="1208" y2="214" style="stroke:grey;stroke-width:8" />
</g><g>	<title>ORF8 gene (27894-28259)</title>
	<line x1="1208" y1="210" x2="1208" y2="199" style="stroke:gainsboro;stroke-width:8" />
</g><g>	<title>N gene (28274-29533)</title>
	<line x1="1208" y1="198" x2="1208" y2="160" style="stroke:grey;stroke-width:8" />
</g><g>	<title>ORF10 gene (29558-29674)</title>
	<line x1="1208" y1="159" x2="1208" y2="155" style="stroke:gainsboro;stroke-width:8" />
</g><line x1="1200" y1="147.938461538462" x2="1200" y2="1068" style="stroke:white;stroke-width:3" />
<line x1="1204" y1="147.938461538462" x2="1210" y2="147.938461538462" style="stroke:white;stroke-width:2" />
<line x1="1210" y1="147.938461538462" x2="1215" y2="122.938461538462" style="stroke:white;stroke-width:2" />
<line x1="1204" y1="1068" x2="1210" y2="1068" style="stroke:white;stroke-width:2" />
<line x1="1210" y1="1068" x2="1215" y2="1093" style="stroke:white;stroke-width:2" />
<text font-size="2.0em" x="1215" y="122.938461538462" fill="white">29.9 kb</text>
<text font-size="2.0em" x="1215" y="1113" fill="white">1</text>
<text font-size="2.5em" x="75" y="175" fill="white">Continents</text>
<circle cx="60" cy="205" r="8" style="fill:cyan;stroke:black;stroke-width:0;fill-opacity:0.6;" />
<text font-size="2.0em" x="75" y="215" fill="white">Europe</text>
<circle cx="60" cy="235" r="8" style="fill:fuchsia;stroke:black;stroke-width:0;fill-opacity:0.6;" />
<text font-size="2.0em" x="75" y="245" fill="white">North America</text>
<circle cx="60" cy="265" r="8" style="fill:white;stroke:black;stroke-width:0;fill-opacity:0.6;" />
<text font-size="2.0em" x="75" y="275" fill="white">Asia</text>
<circle cx="60" cy="295" r="8" style="fill:orange;stroke:black;stroke-width:0;fill-opacity:0.6;" />
<text font-size="2.0em" x="75" y="305" fill="white">Oceania</text>
<circle cx="60" cy="325" r="8" style="fill:yellow;stroke:black;stroke-width:0;fill-opacity:0.6;" />
<text font-size="2.0em" x="75" y="335" fill="white">Africa</text>
<circle cx="60" cy="355" r="8" style="fill:lime;stroke:black;stroke-width:0;fill-opacity:0.6;" />
<text font-size="2.0em" x="75" y="365" fill="white">South America</text>
<circle cx="60" cy="410" r="1" style="fill:white;stroke:lightgrey;stroke-width:0.2;" />
<circle cx="100" cy="410" r="4" style="fill:white;stroke:lightgrey;stroke-width:0.2;" />
<circle cx="140" cy="410" r="8" style="fill:white;stroke:lightgrey;stroke-width:0.2;" />
<text font-size="2.0em" x="50" y="455" fill="white">1      10        100% daily</text>
<text font-size="2.0em" x="50" y="485" fill="white">sample fraction</text>
<g>
	<title>2021-01-01 Europe=192</title>
	<line x1="1200.3" y1="1180.0" x2="1200.7" y2="1161.7" style="stroke:cyan;" class="sb" />
</g>
<g>
	<title>2021-01-01 North America=81</title>
	<line x1="1200.7" y1="1161.7" x2="1200.9" y2="1146.4" style="stroke:fuchsia;" class="sb" />
</g>
<g>
	<title>2021-01-01 Asia=9</title>
	<line x1="1200.9" y1="1146.4" x2="1201.1" y2="1138.4" style="stroke:white;" class="sb" />
</g>
<g>
	<title>2021-01-01 Oceania=11</title>
	<line x1="1201.1" y1="1138.4" x2="1201.2" y2="1129.8" style="stroke:orange;" class="sb" />
</g>
<g>
	<title>2021-01-01 Africa=4</title>
	<line x1="1201.2" y1="1129.8" x2="1201.3" y2="1124.2" style="stroke:yellow;" class="sb" />
</g>
<g>
	<title>2021-01-01  ATTA21993A  Europe=48 [25.0%]  S, Y145H</title>
	<circle cx="1214" cy="391" r="6" style="fill:cyan;" class="cv" />
</g>
<g>
	<title>2021-01-02 Europe=484</title>
	<line x1="1200.7" y1="1180.0" x2="1201.4" y2="1158.5" style="stroke:cyan;" class="sb" />
</g>
<g>
	<title>2021-01-02 North America=246</title>
	<line x1="1201.4" y1="1158.5" x2="1202.1" y2="1139.4" style="stroke:fuchsia;" class="sb" />
</g>
<g>
	<title>2021-01-02 Asia=12</title>
	<line x1="1202.1" y1="1139.4" x2="1202.4" y2="1130.5" style="stroke:white;" class="sb" />
</g>
<g>
	<title>2021-01-02 Oceania=6</title>
	<line x1="1202.4" y1="1130.5" x2="1202.6" y2="1123.7" style="stroke:orange;" class="sb" />
</g>
<g>
	<title>2021-01-02 Africa=14</title>
	<line x1="1202.6" y1="1123.7" x2="1202.9" y2="1114.3" style="stroke:yellow;" class="sb" />
</g>
<g>
	<title>2021-01-02 South America=3</title>
	<line x1="1202.9" y1="1114.3" x2="1203.1" y2="1109.5" style="stroke:lime;" class="sb" />
</g>
<g>
	<title>2021-01-02  ATTA21993A  Europe=189 [39.0%]  S, Y145H</title>
	<circle cx="1228" cy="391" r="6" style="fill:cyan;" class="cv" />
</g>
<g>
	<title>2021-01-02  ATTA21993A  Asia=4 [33.3%]  S, Y145H</title>
	<circle cx="1228" cy="391" r="6" style="fill:white;" class="cv" />
</g>
<g>
	<title>2021-01-02  CA28253C  Europe=2 [0.4%]  ORF8, I121S</title>
	<circle cx="1234" cy="199" r="1" style="fill:cyan;" class="cv" />
</g>
<g>
	<title>2021-01-03 Europe=471</title>
	<line x1="1201.0" y1="1180.0" x2="1202.1" y2="1158.7" style="stroke:cyan;" class="sb" />
</g>
<g>
	<title>2021-01-03 North America=164</title>
	<line x1="1202.1" y1="1158.7" x2="1203.1" y2="1140.9" style="stroke:fuchsia;" class="sb" />
</g>
<g>
	<title>2021-01-03 Asia=10</title>
	<line x1="1203.1" y1="1140.9" x2="1203.5" y2="1132.6" style="stroke:white;" class="sb" />
</g>
<g>
	<title>2021-01-03 Oceania=4</title>
	<line x1="1203.5" y1="1132.6" x2="1203.8" y2="1127.0" style="stroke:orange;" class="sb" />
</g>
<g>
	<title>2021-01-03 Africa=30</title>
	<line x1="1203.8" y1="1127.0" x2="1204.4" y2="1115.1" style="stroke:yellow;" class="sb" />
</g>
<g>
	<title>2021-01-03  ATTA21993A  Europe=156 [33.1%]  S, Y145H</title>
	<circle cx="1242" cy="392" r="6" style="fill:cyan;" class="cv" />
</g>
<g>
	<title>2021-01-03  ATTA21993A  North America=3 [1.8%]  S, Y145H</title>
	<circle cx="1242" cy="392" r="2" style="fill:fuchsia;" class="cv" />
</g>
<g>
	<title>2021-01-03  TGTT26157T  Europe=3 [0.6%]  ORF3a, V256N</title>
	<circle cx="1248" cy="264" r="1" style="fill:cyan;" class="cv" />
</g>
<g>
	<title>2021-01-04 Europe=2982</title>
	<line x1="1201.4" y1="1180.0" x2="1203.3" y2="1152.3" style="stroke:cyan;" class="sb" />
</g>
<g>
	<title>2021-01-04 North America=532</title>
	<line x1="1203.3" y1="1152.3" x2="1204.8" y2="1130.6" style="stroke:fuchsia;" class="sb" />
</g>
<g>
	<title>2021-01-04 Asia=48</title>
	<line x1="1204.8" y1="1130.6" x2="1205.7" y2="1117.1" style="stroke:white;" class="sb" />
</g>
<g>
	<title>2021-01-04 Oceania=5</title>
	<line x1="1205.7" y1="1117.1" x2="1206.2" y2="1110.9" style="stroke:orange;" class="sb" />
</g>
<g>
	<title>2021-01-04 South America=3</title>
	<line x1="1206.2" y1="1110.9" x2="1206.5" y2="1106.0" style="stroke:lime;" class="sb" />
</g>
<g>
	<title>2021-01-04  TATG517T  Europe=3 [0.1%]  orf1ab, M85V</title>
	<circle cx="1210" cy="1052" r="0" style="fill:cyan;" class="cv" />
</g>
<g>
	<title>2021-01-04  AGTT6512A  North America=3 [0.6%]  orf1ab, S2083I</title>
	<circle cx="1223" cy="868" r="1" style="fill:fuchsia;" class="cv" />
</g>
<g>
	<title>2021-01-04  TT11083T  Europe=42 [1.4%]  orf1ab, L3606F</title>
	<circle cx="1233" cy="728" r="2" style="fill:cyan;" class="cv" />
</g>
<g>
	<title>2021-01-04  TT21576T  Europe=8 [0.3%]  S, V6F</title>
	<circle cx="1255" cy="406" r="0" style="fill:cyan;" class="cv" />
</g>
<g>
	<title>2021-01-04  ATTA21993A  Asia=13 [27.1%]  S, Y145H</title>
	<circle cx="1256" cy="393" r="6" style="fill:white;" class="cv" />
</g>
<g>
	<title>2021-01-04  ATTA21993A  Europe=206 [6.9%]  S, Y145H</title>
	<circle cx="1256" cy="393" r="4" style="fill:cyan;" class="cv" />
</g>
<g>
	<title>2021-01-04  ATTA21993A  North America=3 [0.6%]  S, Y145H</title>
	<circle cx="1256" cy="393" r="1" style="fill:fuchsia;" class="cv" />
</g>
<g>
	<title>2021-01-04  ATTA22190A  Europe=11 [0.4%]  S, I210N</title>
	<circle cx="1256" cy="387" r="1" style="fill:cyan;" class="cv" />
</g>
<g>
	<title>2021-01-04  T24910TCACA  Europe=2 [0.1%]  S, T1117H</title>
	<circle cx="1262" cy="303" r="0" style="fill:cyan;" class="cv" />
</g>
<g>
	<title>2021-01-04  AGACA24913A  Europe=2 [0.1%]  S, D1118T</title>
	<circle cx="1262" cy="303" r="0" style="fill:cyan;" class="cv" />
</g>
<g>
	<title>2021-01-04  TGTT26157T  North America=2 [0.4%]  ORF3a, V256N</title>
	<circle cx="1265" cy="265" r="1" style="fill:fuchsia;" class="cv" />
</g>
<g>
	<title>2021-01-04  GTTA26158G  Europe=2 [0.1%]  ORF3a, V256D</title>
	<circle cx="1265" cy="265" r="0" style="fill:cyan;" class="cv" />
</g>
<g>
	<title>2021-01-04  TT26306T  Europe=5 [0.2%]  E, A22L</title>
	<circle cx="1265" cy="261" r="0" style="fill:cyan;" class="cv" />
</g>
<g>
	<title>2021-01-04  TGT27462T  Europe=4 [0.1%]  ORF7a, V24*</title>
	<circle cx="1267" cy="225" r="0" style="fill:cyan;" class="cv" />
</g>
<g>
	<title>2021-01-04  CA28253C  North America=6 [1.1%]  ORF8, I121S</title>
	<circle cx="1269" cy="201" r="1" style="fill:fuchsia;" class="cv" />
</g>
<g>
	<title>2021-01-04  CA28253C  North America=6 [1.1%] Europe=4 [0.1%]  ORF8, I121S</title>
	<circle cx="1269" cy="201" r="0" style="fill:cyan;" class="cv" />
</g>
<g>
	<title>2021-01-04  AGAA28898A  Europe=4 [0.1%]  N, R209M</title>
	<circle cx="1270" cy="181" r="0" style="fill:cyan;" class="cv" />
</g>
<g>
	<title>2021-01-04  TT29589T  Europe=49 [1.6%]  ORF10, F11L</title>
	<circle cx="1272" cy="160" r="2" style="fill:cyan;" class="cv" />
</g>
<g>
	<title>2021-01-05 Europe=531</title>
	<line x1="1201.7" y1="1180.1" x2="1203.6" y2="1158.3" style="stroke:cyan;" class="sb" />
</g>
<g>
	<title>2021-01-05 North America=457</title>
	<line x1="1203.6" y1="1158.3" x2="1205.4" y2="1137.1" style="stroke:fuchsia;" class="sb" />
</g>
<g>
	<title>2021-01-05 Asia=24</title>
	<line x1="1205.4" y1="1137.1" x2="1206.4" y2="1126.0" style="stroke:white;" class="sb" />
</g>
<g>
	<title>2021-01-05 Africa=6</title>
	<line x1="1206.4" y1="1126.0" x2="1207.0" y2="1119.3" style="stroke:yellow;" class="sb" />
</g>
<g>
	<title>2021-01-05 South America=2</title>
	<line x1="1207.0" y1="1119.3" x2="1207.3" y2="1115.5" style="stroke:lime;" class="sb" />
</g>
<g>
	<title>2021-01-05  ATTA21993A  Europe=199 [37.5%]  S, Y145H</title>
	<circle cx="1270" cy="394" r="6" style="fill:cyan;" class="cv" />
</g>
<g>
	<title>2021-01-05  ATTA21993A  Asia=7 [29.2%]  S, Y145H</title>
	<circle cx="1270" cy="394" r="6" style="fill:white;" class="cv" />
</g>
<g>
	<title>2021-01-05  ATTA21993A  North America=9 [2.0%]  S, Y145H</title>
	<circle cx="1270" cy="394" r="2" style="fill:fuchsia;" class="cv" />
</g>
<g>
	<title>2021-01-05  CA28253C  North America=3 [0.7%]  ORF8, I121S</title>
	<circle cx="1286" cy="202" r="1" style="fill:fuchsia;" class="cv" />
</g>
<g>
	<title>2021-01-06 Europe=319</title>
	<line x1="1202.1" y1="1180.1" x2="1204.1" y2="1160.2" style="stroke:cyan;" class="sb" />
</g>
<g>
	<title>2021-01-06 North America=402</title>
	<line x1="1204.1" y1="1160.2" x2="1206.3" y2="1139.4" style="stroke:fuchsia;" class="sb" />
</g>
<g>
	<title>2021-01-06 Asia=17</title>
	<line x1="1206.3" y1="1139.4" x2="1207.3" y2="1129.5" style="stroke:white;" class="sb" />
</g>
<g>
	<title>2021-01-06 Oceania=9</title>
	<line x1="1207.3" y1="1129.5" x2="1208.1" y2="1121.5" style="stroke:orange;" class="sb" />
</g>
<g>
	<title>2021-01-06 Africa=7</title>
	<line x1="1208.1" y1="1121.5" x2="1208.9" y2="1114.3" style="stroke:yellow;" class="sb" />
</g>
<g>
	<title>2021-01-06 South America=3</title>
	<line x1="1208.9" y1="1114.3" x2="1209.4" y2="1109.5" style="stroke:lime;" class="sb" />
</g>
<g>
	<title>2021-01-06  ATTA21993A  Asia=11 [64.7%]  S, Y145H</title>
	<circle cx="1283" cy="395" r="7" style="fill:white;" class="cv" />
</g>
<g>
	<title>2021-01-06  ATTA21993A  Europe=122 [38.2%]  S, Y145H</title>
	<circle cx="1283" cy="395" r="6" style="fill:cyan;" class="cv" />
</g>
<g>
	<title>2021-01-06  ATTA21993A  North America=8 [2.0%]  S, Y145H</title>
	<circle cx="1283" cy="395" r="2" style="fill:fuchsia;" class="cv" />
</g>
<g>
	<title>2021-01-06  CA28253C  North America=6 [1.5%]  ORF8, I121S</title>
	<circle cx="1303" cy="204" r="2" style="fill:fuchsia;" class="cv" />
</g>
<g>
	<title>2021-01-06  CA28253C  North America=6 [1.5%] Europe=2 [0.6%]  ORF8, I121S</title>
	<circle cx="1303" cy="204" r="1" style="fill:cyan;" class="cv" />
</g>
<g>
	<title>2021-01-07 Europe=748</title>
	<line x1="1202.4" y1="1180.1" x2="1205.2" y2="1157.3" style="stroke:cyan;" class="sb" />
</g>
<g>
	<title>2021-01-07 North America=271</title>
	<line x1="1205.2" y1="1157.3" x2="1207.5" y2="1138.0" style="stroke:fuchsia;" class="sb" />
</g>
<g>
	<title>2021-01-07 Asia=6</title>
	<line x1="1207.5" y1="1138.0" x2="1208.3" y2="1131.3" style="stroke:white;" class="sb" />
</g>
<g>
	<title>2021-01-07 Africa=7</title>
	<line x1="1208.3" y1="1131.3" x2="1209.2" y2="1124.1" style="stroke:yellow;" class="sb" />
</g>
<g>
	<title>2021-01-07 South America=3</title>
	<line x1="1209.2" y1="1124.1" x2="1209.8" y2="1119.3" style="stroke:lime;" class="sb" />
</g>
<g>
	<title>2021-01-07  AGTT6512A  Europe=4 [0.5%]  orf1ab, S2083I</title>
	<circle cx="1240" cy="870" r="1" style="fill:cyan;" class="cv" />
</g>
<g>
	<title>2021-01-07  ATTA21993A  South America=2 [66.7%]  S, Y145H</title>
	<circle cx="1297" cy="397" r="7" style="fill:lime;" class="cv" />
</g>
<g>
	<title>2021-01-07  ATTA21993A  South America=2 [66.7%] Europe=474 [63.4%]  S, Y145H</title>
	<circle cx="1297" cy="397" r="7" style="fill:cyan;" class="cv" />
</g>
<g>
	<title>2021-01-07  ATTA21993A  North America=9 [3.3%]  S, Y145H</title>
	<circle cx="1297" cy="397" r="3" style="fill:fuchsia;" class="cv" />
</g>
<g>
	<title>2021-01-07  GTTA26158G  Europe=2 [0.3%]  ORF3a, V256D</title>
	<circle cx="1313" cy="270" r="0" style="fill:cyan;" class="cv" />
</g>
<g>
	<title>2021-01-07  CA28253C  North America=3 [1.1%]  ORF8, I121S</title>
	<circle cx="1320" cy="206" r="1" style="fill:fuchsia;" class="cv" />
</g>
<g>
	<title>2021-01-07  G29601GTA  Europe=4 [0.5%]  ORF10, L16I</title>
	<circle cx="1325" cy="164" r="1" style="fill:cyan;" class="cv" />
</g>
<g>
	<title>2021-01-08 Europe=506</title>
	<line x1="1202.7" y1="1180.2" x2="1205.7" y2="1158.8" style="stroke:cyan;" class="sb" />
</g>
<g>
	<title>2021-01-08 North America=283</title>
	<line x1="1205.7" y1="1158.8" x2="1208.4" y2="1139.3" style="stroke:fuchsia;" class="sb" />
</g>
<g>
	<title>2021-01-08 Asia=8</title>
	<line x1="1208.4" y1="1139.3" x2="1209.5" y2="1131.8" style="stroke:white;" class="sb" />
</g>
<g>
	<title>2021-01-08 Oceania=8</title>
	<line x1="1209.5" y1="1131.8" x2="1210.5" y2="1124.2" style="stroke:orange;" class="sb" />
</g>
<g>
	<title>2021-01-08 Africa=2</title>
	<line x1="1210.5" y1="1124.2" x2="1211.0" y2="1120.4" style="stroke:yellow;" class="sb" />
</g>
<g>
	<title>2021-01-08 South America=4</title>
	<line x1="1211.0" y1="1120.4" x2="1211.8" y2="1114.9" style="stroke:lime;" class="sb" />
</g>
<g>
	<title>2021-01-08  ATTA21993A  Europe=286 [56.5%]  S, Y145H</title>
	<circle cx="1311" cy="399" r="7" style="fill:cyan;" class="cv" />
</g>
<g>
	<title>2021-01-08  ATTA21993A  Oceania=3 [37.5%]  S, Y145H</title>
	<circle cx="1311" cy="399" r="6" style="fill:orange;" class="cv" />
</g>
<g>
	<title>2021-01-08  ATTA21993A  North America=2 [0.7%]  S, Y145H</title>
	<circle cx="1311" cy="399" r="1" style="fill:fuchsia;" class="cv" />
</g>
<g>
	<title>2021-01-08  CA28253C  North America=2 [0.7%]  ORF8, I121S</title>
	<circle cx="1337" cy="208" r="1" style="fill:fuchsia;" class="cv" />
</g>
<g>
	<title>2021-01-09 Europe=727</title>
	<line x1="1203.1" y1="1180.2" x2="1206.6" y2="1157.6" style="stroke:cyan;" class="sb" />
</g>
<g>
	<title>2021-01-09 North America=186</title>
	<line x1="1206.6" y1="1157.6" x2="1209.4" y2="1139.7" style="stroke:fuchsia;" class="sb" />
</g>
<g>
	<title>2021-01-09 Asia=6</title>
	<line x1="1209.4" y1="1139.7" x2="1210.5" y2="1133.0" style="stroke:white;" class="sb" />
</g>
<g>
	<title>2021-01-09 Oceania=5</title>
	<line x1="1210.5" y1="1133.0" x2="1211.4" y2="1126.8" style="stroke:orange;" class="sb" />
</g>
<g>
	<title>2021-01-09 Africa=44</title>
	<line x1="1211.4" y1="1126.8" x2="1213.5" y2="1113.8" style="stroke:yellow;" class="sb" />
</g>
<g>
	<title>2021-01-09  ATTA21993A  Europe=459 [63.1%]  S, Y145H</title>
	<circle cx="1325" cy="401" r="7" style="fill:cyan;" class="cv" />
</g>
<g>
	<title>2021-01-09  ATTA21993A  Africa=2 [4.5%]  S, Y145H</title>
	<circle cx="1325" cy="401" r="3" style="fill:yellow;" class="cv" />
</g>
<g>
	<title>2021-01-10 Europe=752</title>
	<line x1="1203.4" y1="1180.3" x2="1207.4" y2="1157.6" style="stroke:cyan;" class="sb" />
</g>
<g>
	<title>2021-01-10 North America=128</title>
	<line x1="1207.4" y1="1157.6" x2="1210.3" y2="1141.0" style="stroke:fuchsia;" class="sb" />
</g>
<g>
	<title>2021-01-10 Asia=4</title>
	<line x1="1210.3" y1="1141.0" x2="1211.2" y2="1135.5" style="stroke:white;" class="sb" />
</g>
<g>
	<title>2021-01-10 Oceania=6</title>
	<line x1="1211.2" y1="1135.5" x2="1212.4" y2="1128.8" style="stroke:orange;" class="sb" />
</g>
<g>
	<title>2021-01-10 Africa=4</title>
	<line x1="1212.4" y1="1128.8" x2="1213.3" y2="1123.3" style="stroke:yellow;" class="sb" />
</g>
<g>
	<title>2021-01-10  ATTA21993A  Europe=520 [69.1%]  S, Y145H</title>
	<circle cx="1339" cy="403" r="7" style="fill:cyan;" class="cv" />
</g>
<g>
	<title>2021-01-10  ATTA21993A  North America=7 [5.5%]  S, Y145H</title>
	<circle cx="1339" cy="403" r="3" style="fill:fuchsia;" class="cv" />
</g>
<g>
	<title>2021-01-11 Europe=3566</title>
	<line x1="1203.8" y1="1180.4" x2="1209.1" y2="1152.4" style="stroke:cyan;" class="sb" />
</g>
<g>
	<title>2021-01-11 North America=355</title>
	<line x1="1209.1" y1="1152.4" x2="1213.0" y2="1132.4" style="stroke:fuchsia;" class="sb" />
</g>
<g>
	<title>2021-01-11 Asia=15</title>
	<line x1="1213.0" y1="1132.4" x2="1214.8" y2="1122.9" style="stroke:white;" class="sb" />
</g>
<g>
	<title>2021-01-11 Oceania=2</title>
	<line x1="1214.8" y1="1122.9" x2="1215.5" y2="1119.2" style="stroke:orange;" class="sb" />
</g>
<g>
	<title>2021-01-11 Africa=33</title>
	<line x1="1215.5" y1="1119.2" x2="1217.8" y2="1107.2" style="stroke:yellow;" class="sb" />
</g>
<g>
	<title>2021-01-11  TTAT516T  Europe=4 [0.1%]  orf1ab, M85V</title>
	<circle cx="1228" cy="1054" r="0" style="fill:cyan;" class="cv" />
</g>
<g>
	<title>2021-01-11  TATG517T  Europe=3 [0.1%]  orf1ab, M85V</title>
	<circle cx="1228" cy="1054" r="0" style="fill:cyan;" class="cv" />
</g>
<g>
	<title>2021-01-11  AATA6509A  Europe=2 [0.1%]  orf1ab, N2082S</title>
	<circle cx="1263" cy="873" r="0" style="fill:cyan;" class="cv" />
</g>
<g>
	<title>2021-01-11  TT11083T  Europe=30 [0.8%]  orf1ab, L3606F</title>
	<circle cx="1289" cy="735" r="1" style="fill:cyan;" class="cv" />
</g>
<g>
	<title>2021-01-11  TT21576T  Europe=4 [0.1%]  S, V6F</title>
	<circle cx="1350" cy="418" r="0" style="fill:cyan;" class="cv" />
</g>
<g>
	<title>2021-01-11  ATTA21993A  Asia=7 [46.7%]  S, Y145H</title>
	<circle cx="1352" cy="405" r="7" style="fill:white;" class="cv" />
</g>
<g>
	<title>2021-01-11  ATTA21993A  Asia=7 [46.7%] Africa=14 [42.4%]  S, Y145H</title>
	<circle cx="1352" cy="405" r="7" style="fill:yellow;" class="cv" />
</g>
<g>
	<title>2021-01-11  ATTA21993A  Europe=1188 [33.3%]  S, Y145H</title>
	<circle cx="1352" cy="405" r="6" style="fill:cyan;" class="cv" />
</g>
<g>
	<title>2021-01-11  ATTA21993A  North America=21 [5.9%]  S, Y145H</title>
	<circle cx="1352" cy="405" r="3" style="fill:fuchsia;" class="cv" />
</g>
<g>
	<title>2021-01-11  ATTA22190A  Europe=10 [0.3%]  S, I210N</title>
	<circle cx="1353" cy="400" r="0" style="fill:cyan;" class="cv" />
</g>
<g>
	<title>2021-01-11  TT26306T  Europe=9 [0.3%]  E, A22L</title>
	<circle cx="1377" cy="275" r="0" style="fill:cyan;" class="cv" />
</g>
<g>
	<title>2021-01-11  AGAA28898A  Europe=3 [0.1%]  N, R209M</title>
	<circle cx="1392" cy="197" r="0" style="fill:cyan;" class="cv" />
</g>
<g>
	<title>2021-01-11  TT29589T  Europe=19 [0.5%]  ORF10, F11L</title>
	<circle cx="1396" cy="176" r="1" style="fill:cyan;" class="cv" />
</g>
<g>
	<title>2021-01-12 Europe=1568</title>
	<line x1="1204.1" y1="1180.4" x2="1209.3" y2="1155.4" style="stroke:cyan;" class="sb" />
</g>
<g>
	<title>2021-01-12 North America=242</title>
	<line x1="1209.3" y1="1155.4" x2="1213.3" y2="1136.7" style="stroke:fuchsia;" class="sb" />
</g>
<g>
	<title>2021-01-12 Asia=11</title>
	<line x1="1213.3" y1="1136.7" x2="1215.0" y2="1128.3" style="stroke:white;" class="sb" />
</g>
<g>
	<title>2021-01-12 Oceania=2</title>
	<line x1="1215.0" y1="1128.3" x2="1215.8" y2="1124.5" style="stroke:orange;" class="sb" />
</g>
<g>
	<title>2021-01-12 Africa=10</title>
	<line x1="1215.8" y1="1124.5" x2="1217.5" y2="1116.4" style="stroke:yellow;" class="sb" />
</g>
<g>
	<title>2021-01-12  ATTA21993A  Asia=8 [72.7%]  S, Y145H</title>
	<circle cx="1366" cy="408" r="7" style="fill:white;" class="cv" />
</g>
<g>
	<title>2021-01-12  ATTA21993A  Asia=8 [72.7%] Europe=1087 [69.3%]  S, Y145H</title>
	<circle cx="1366" cy="408" r="7" style="fill:cyan;" class="cv" />
</g>
<g>
	<title>2021-01-12  ATTA21993A  North America=10 [4.1%]  S, Y145H</title>
	<circle cx="1366" cy="408" r="3" style="fill:fuchsia;" class="cv" />
</g>
<g>
	<title>2021-01-12  GTTA26158G  Europe=2 [0.1%]  ORF3a, V256D</title>
	<circle cx="1392" cy="283" r="0" style="fill:cyan;" class="cv" />
</g>
<g>
	<title>2021-01-13 Europe=785</title>
	<line x1="1204.4" y1="1180.5" x2="1209.6" y2="1157.9" style="stroke:cyan;" class="sb" />
</g>
<g>
	<title>2021-01-13 North America=144</title>
	<line x1="1209.6" y1="1157.9" x2="1213.4" y2="1141.1" style="stroke:fuchsia;" class="sb" />
</g>
<g>
	<title>2021-01-13 Asia=13</title>
	<line x1="1213.4" y1="1141.1" x2="1215.4" y2="1132.1" style="stroke:white;" class="sb" />
</g>
<g>
	<title>2021-01-13 Oceania=4</title>
	<line x1="1215.4" y1="1132.1" x2="1216.7" y2="1126.7" style="stroke:orange;" class="sb" />
</g>
<g>
	<title>2021-01-13 Africa=6</title>
	<line x1="1216.7" y1="1126.7" x2="1218.2" y2="1120.1" style="stroke:yellow;" class="sb" />
</g>
<g>
	<title>2021-01-13 South America=2</title>
	<line x1="1218.2" y1="1120.1" x2="1219.0" y2="1116.3" style="stroke:lime;" class="sb" />
</g>
<g>
	<title>2021-01-13  ATTA21993A  Asia=8 [61.5%]  S, Y145H</title>
	<circle cx="1380" cy="411" r="7" style="fill:white;" class="cv" />
</g>
<g>
	<title>2021-01-13  ATTA21993A  Europe=443 [56.4%]  S, Y145H</title>
	<circle cx="1380" cy="411" r="7" style="fill:cyan;" class="cv" />
</g>
<g>
	<title>2021-01-13  ATTA21993A  North America=6 [4.2%]  S, Y145H</title>
	<circle cx="1380" cy="411" r="3" style="fill:fuchsia;" class="cv" />
</g>
<g>
	<title>2021-01-14 Europe=1198</title>
	<line x1="1204.8" y1="1180.6" x2="1210.7" y2="1156.7" style="stroke:cyan;" class="sb" />
</g>
<g>
	<title>2021-01-14 North America=183</title>
	<line x1="1210.7" y1="1156.7" x2="1215.0" y2="1139.1" style="stroke:fuchsia;" class="sb" />
</g>
<g>
	<title>2021-01-14 Asia=8</title>
	<line x1="1215.0" y1="1139.1" x2="1216.8" y2="1131.7" style="stroke:white;" class="sb" />
</g>
<g>
	<title>2021-01-14 Oceania=5</title>
	<line x1="1216.8" y1="1131.7" x2="1218.3" y2="1125.6" style="stroke:orange;" class="sb" />
</g>
<g>
	<title>2021-01-14  ATTA21993A  Asia=6 [75.0%]  S, Y145H</title>
	<circle cx="1393" cy="414" r="8" style="fill:white;" class="cv" />
</g>
<g>
	<title>2021-01-14  ATTA21993A  Asia=6 [75.0%] Europe=877 [73.2%]  S, Y145H</title>
	<circle cx="1393" cy="414" r="7" style="fill:cyan;" class="cv" />
</g>
<g>
	<title>2021-01-14  ATTA21993A  Oceania=2 [40.0%]  S, Y145H</title>
	<circle cx="1393" cy="414" r="6" style="fill:orange;" class="cv" />
</g>
<g>
	<title>2021-01-14  ATTA21993A  North America=22 [12.0%]  S, Y145H</title>
	<circle cx="1393" cy="414" r="4" style="fill:fuchsia;" class="cv" />
</g>
<g>
	<title>2021-01-14  ATTA22190A  Europe=2 [0.2%]  S, I210N</title>
	<circle cx="1395" cy="409" r="0" style="fill:cyan;" class="cv" />
</g>
<g>
	<title>2021-01-15 Europe=881</title>
	<line x1="1205.1" y1="1180.7" x2="1211.1" y2="1157.9" style="stroke:cyan;" class="sb" />
</g>
<g>
	<title>2021-01-15 North America=178</title>
	<line x1="1211.1" y1="1157.9" x2="1215.7" y2="1140.5" style="stroke:fuchsia;" class="sb" />
</g>
<g>
	<title>2021-01-15 Asia=3</title>
	<line x1="1215.7" y1="1140.5" x2="1217.0" y2="1135.8" style="stroke:white;" class="sb" />
</g>
<g>
	<title>2021-01-15 Oceania=10</title>
	<line x1="1217.0" y1="1135.8" x2="1219.1" y2="1127.7" style="stroke:orange;" class="sb" />
</g>
<g>
	<title>2021-01-15 South America=12</title>
	<line x1="1219.1" y1="1127.7" x2="1221.4" y2="1119.1" style="stroke:lime;" class="sb" />
</g>
<g>
	<title>2021-01-15  ATTA21993A  Europe=648 [73.6%]  S, Y145H</title>
	<circle cx="1407" cy="418" r="7" style="fill:cyan;" class="cv" />
</g>
<g>
	<title>2021-01-15  ATTA21993A  Oceania=3 [30.0%]  S, Y145H</title>
	<circle cx="1407" cy="418" r="6" style="fill:orange;" class="cv" />
</g>
<g>
	<title>2021-01-15  ATTA21993A  North America=4 [2.2%]  S, Y145H</title>
	<circle cx="1407" cy="418" r="2" style="fill:fuchsia;" class="cv" />
</g>
<g>
	<title>2021-01-16 Europe=582</title>
	<line x1="1205.4" y1="1180.8" x2="1211.5" y2="1159.5" style="stroke:cyan;" class="sb" />
</g>
<g>
	<title>2021-01-16 North America=39</title>
	<line x1="1211.5" y1="1159.5" x2="1214.9" y2="1147.1" style="stroke:fuchsia;" class="sb" />
</g>
<g>
	<title>2021-01-16 Asia=4</title>
	<line x1="1214.9" y1="1147.1" x2="1216.5" y2="1141.7" style="stroke:white;" class="sb" />
</g>
<g>
	<title>2021-01-16 Oceania=5</title>
	<line x1="1216.5" y1="1141.7" x2="1218.2" y2="1135.8" style="stroke:orange;" class="sb" />
</g>
<g>
	<title>2021-01-16  ATTA21993A  Oceania=4 [80.0%]  S, Y145H</title>
	<circle cx="1420" cy="422" r="8" style="fill:orange;" class="cv" />
</g>
<g>
	<title>2021-01-16  ATTA21993A  Europe=430 [73.9%]  S, Y145H</title>
	<circle cx="1420" cy="422" r="7" style="fill:cyan;" class="cv" />
</g>
<g>
	<title>2021-01-16  ATTA21993A  Asia=2 [50.0%]  S, Y145H</title>
	<circle cx="1420" cy="422" r="7" style="fill:white;" class="cv" />
</g>
<g>
	<title>2021-01-16  ATTA21993A  North America=3 [7.7%]  S, Y145H</title>
	<circle cx="1420" cy="422" r="4" style="fill:fuchsia;" class="cv" />
</g>
<g>
	<title>2021-01-17 Europe=653</title>
	<line x1="1205.8" y1="1180.9" x2="1212.3" y2="1159.3" style="stroke:cyan;" class="sb" />
</g>
<g>
	<title>2021-01-17 North America=31</title>
	<line x1="1212.3" y1="1159.3" x2="1215.7" y2="1147.8" style="stroke:fuchsia;" class="sb" />
</g>
<g>
	<title>2021-01-17 Asia=7</title>
	<line x1="1215.7" y1="1147.8" x2="1217.8" y2="1140.8" style="stroke:white;" class="sb" />
</g>
<g>
	<title>2021-01-17 Oceania=3</title>
	<line x1="1217.8" y1="1140.8" x2="1219.2" y2="1136.2" style="stroke:orange;" class="sb" />
</g>
<g>
	<title>2021-01-17  ATTA21993A  Europe=508 [77.8%]  S, Y145H</title>
	<circle cx="1433" cy="425" r="8" style="fill:cyan;" class="cv" />
</g>
<g>
	<title>2021-01-18 Europe=714</title>
	<line x1="1206.1" y1="1181.0" x2="1213.1" y2="1159.2" style="stroke:cyan;" class="sb" />
</g>
<g>
	<title>2021-01-18 North America=79</title>
	<line x1="1213.1" y1="1159.2" x2="1217.7" y2="1144.7" style="stroke:fuchsia;" class="sb" />
</g>
<g>
	<title>2021-01-18 Asia=4</title>
	<line x1="1217.7" y1="1144.7" x2="1219.4" y2="1139.4" style="stroke:white;" class="sb" />
</g>
<g>
	<title>2021-01-18 Oceania=4</title>
	<line x1="1219.4" y1="1139.4" x2="1221.1" y2="1134.1" style="stroke:orange;" class="sb" />
</g>
<g>
	<title>2021-01-18  TT11083T  Europe=9 [1.3%]  orf1ab, L3606F</title>
	<circle cx="1344" cy="749" r="1" style="fill:cyan;" class="cv" />
</g>
<g>
	<title>2021-01-18  ATTA21993A  Oceania=2 [50.0%]  S, Y145H</title>
	<circle cx="1447" cy="430" r="7" style="fill:orange;" class="cv" />
</g>
<g>
	<title>2021-01-18  ATTA21993A  Oceania=2 [50.0%] Asia=2 [50.0%]  S, Y145H</title>
	<circle cx="1447" cy="430" r="7" style="fill:white;" class="cv" />
</g>
<g>
	<title>2021-01-18  ATTA21993A  Oceania=2 [50.0%] Asia=2 [50.0%] Europe=338 [47.3%]  S, Y145H</title>
	<circle cx="1447" cy="430" r="7" style="fill:cyan;" class="cv" />
</g>
<g>
	<title>2021-01-18  ATTA21993A  North America=4 [5.1%]  S, Y145H</title>
	<circle cx="1447" cy="430" r="3" style="fill:fuchsia;" class="cv" />
</g>
<g>
	<title>2021-01-18  ATTA22190A  Europe=2 [0.3%]  S, I210N</title>
	<circle cx="1448" cy="424" r="0" style="fill:cyan;" class="cv" />
</g>
<g>
	<title>2021-01-18  TT29589T  Europe=2 [0.3%]  ORF10, F11L</title>
	<circle cx="1518" cy="207" r="0" style="fill:cyan;" class="cv" />
</g>
<g>
	<title>2021-01-19 Europe=176</title>
	<line x1="1206.4" y1="1181.1" x2="1212.2" y2="1164.0" style="stroke:cyan;" class="sb" />
</g>
<g>
	<title>2021-01-19 North America=41</title>
	<line x1="1212.2" y1="1164.0" x2="1216.4" y2="1151.7" style="stroke:fuchsia;" class="sb" />
</g>
<g>
	<title>2021-01-19 Asia=8</title>
	<line x1="1216.4" y1="1151.7" x2="1218.8" y2="1144.5" style="stroke:white;" class="sb" />
</g>
<g>
	<title>2021-01-19  ATTA21993A  Europe=118 [67.0%]  S, Y145H</title>
	<circle cx="1460" cy="434" r="7" style="fill:cyan;" class="cv" />
</g>
<g>
	<title>2021-01-19  ATTA21993A  Europe=118 [67.0%] Asia=5 [62.5%]  S, Y145H</title>
	<circle cx="1460" cy="434" r="7" style="fill:white;" class="cv" />
</g>
<g>
	<title>2021-01-20 Europe=32</title>
	<line x1="1206.8" y1="1181.2" x2="1210.9" y2="1169.7" style="stroke:cyan;" class="sb" />
</g>
<g>
	<title>2021-01-20 North America=5</title>
	<line x1="1210.9" y1="1169.7" x2="1213.0" y2="1163.9" style="stroke:fuchsia;" class="sb" />
</g>
<g>
	<title>2021-01-20 Asia=3</title>
	<line x1="1213.0" y1="1163.9" x2="1214.6" y2="1159.3" style="stroke:white;" class="sb" />
</g>
<g>
	<title>2021-01-20  ATTA21993A  Europe=21 [65.6%]  S, Y145H</title>
	<circle cx="1473" cy="439" r="7" style="fill:cyan;" class="cv" />
</g>
<g>
	<title>2021-01-21 Europe=8</title>
	<line x1="1207.1" y1="1181.3" x2="1209.8" y2="1174.2" style="stroke:cyan;" class="sb" />
</g>
<g>
	<title>2021-01-21 North America=9</title>
	<line x1="1209.8" y1="1174.2" x2="1212.6" y2="1166.7" style="stroke:fuchsia;" class="sb" />
</g>
<g>
	<title>2021-01-21 Asia=4</title>
	<line x1="1212.6" y1="1166.7" x2="1214.6" y2="1161.4" style="stroke:white;" class="sb" />
</g>
<g>
	<title>2021-01-21 Oceania=3</title>
	<line x1="1214.6" y1="1161.4" x2="1216.3" y2="1156.9" style="stroke:orange;" class="sb" />
</g>
<g>
	<title>2021-01-21  ATTA21993A  Europe=8 [100.0%]  S, Y145H</title>
	<circle cx="1486" cy="443" r="8" style="fill:cyan;" class="cv" />
</g>
<g>
	<title>2021-01-21  ATTA21993A  Oceania=2 [66.7%]  S, Y145H</title>
	<circle cx="1486" cy="443" r="7" style="fill:orange;" class="cv" />
</g>
<g>
	<title>2021-01-22 Asia=7</title>
	<line x1="1207.4" y1="1181.4" x2="1210.1" y2="1174.7" style="stroke:white;" class="sb" />
</g>
<g>
	<title>2021-01-22  ATTA21993A  Asia=3 [42.9%]  S, Y145H</title>
	<circle cx="1499" cy="448" r="7" style="fill:white;" class="cv" />
</g>
<g>
	<title>2021-01-23 Europe=3</title>
	<line x1="1207.7" y1="1181.5" x2="1209.6" y2="1177.1" style="stroke:cyan;" class="sb" />
</g>
<g>
	<title>2021-01-23 Asia=4</title>
	<line x1="1209.6" y1="1177.1" x2="1211.7" y2="1171.9" style="stroke:white;" class="sb" />
</g>
<g>
	<title>2021-01-23  ATTA21993A  Europe=2 [66.7%]  S, Y145H</title>
	<circle cx="1512" cy="454" r="7" style="fill:cyan;" class="cv" />
</g>
<g>
	<title>2021-01-24 Asia=2</title>
	<line x1="1208.0" y1="1181.7" x2="1209.6" y2="1178.2" style="stroke:white;" class="sb" />
</g>
<g>
	<title>2021-01-25 Europe=2</title>
	<line x1="1208.3" y1="1181.8" x2="1209.9" y2="1178.4" style="stroke:cyan;" class="sb" />
</g>
<g>
	<title>2021-01-25 North America=10</title>
	<line x1="1209.9" y1="1178.4" x2="1213.4" y2="1170.8" style="stroke:fuchsia;" class="sb" />
</g>
<g>
	<title>2021-01-25  ATTA21993A  North America=2 [20.0%]  S, Y145H</title>
	<circle cx="1538" cy="465" r="5" style="fill:fuchsia;" class="cv" />
</g>
<rect x="1865" y="140" width="500" height="135" rx="15" style="fill:gainsboro;stroke-width:0;fill-opacity:0.15;" />
<text font-size="1.8em" x="1880" y="170" fill="white">Data from 6 continents</text>
<text font-size="1.8em" x="1880" y="200" fill="white">Genomes/year≥10  Genomes/day≥2</text>
<text font-size="1.8em" x="1880" y="230" fill="white">18 distinct missense variants mapped</text>
<text font-size="1.8em" x="1880" y="260" fill="white">Updated 2021-01-29</text>
</svg>
