<?xml version="1.0" encoding="UTF-8" standalone="yes"?>
<!DOCTYPE svg PUBLIC "-//W3C//DTD SVG 1.0//EN" "http://www.w3.org/TR/2001/REC-SVG-20010904/DTD/svg10.dtd">
<svg width="2400" height="2400" xmlns="http://www.w3.org/2000/svg" style="background-color:black">
<circle cx="1200" cy="1200" r="1052" style="fill:grey;stroke:black;stroke-width:0;fill-opacity:0.085;"/>
<circle cx="1200" cy="1200" r="1028" style="fill:black;stroke:black;stroke-width:0;fill-opacity:1;"/>
<circle cx="1200" cy="1200" r="1026" style="fill:gainsboro;stroke:black;stroke-width:0;fill-opacity:0.085;"/>
<circle cx="1200" cy="1200" r="175" style="fill:black;stroke:black;stroke-width:0;fill-opacity:1;"/>
<circle cx="1200" cy="1200" r="173" style="fill:grey;stroke:black;stroke-width:0;fill-opacity:0.085;"/>
<circle cx="1200" cy="1200" r="161" style="fill:black;stroke:black;stroke-width:0;fill-opacity:1;"/>
<text font-size="4.0em" x="50" y="60" fill="white">SARS-CoV-2 mutations 2021 timemap</text>
<text font-size="2.8em" x="50" y="105" fill="white">Genbank MN908947 vs 7 GISAID genomes</text>
<line x1="1200" y1="83.1314031180401" x2="1200" y2="133.13140311804" style="stroke:white;stroke-width:4" />
<text font-size="3.0em" x="1176" y="73.1314031180401" fill="white">Winter</text>
<line x1="2267" y1="1200" x2="2317" y2="1200" style="stroke:white;stroke-width:4" />
<text font-size="3.0em" x="2267" y="1245" fill="white">Spring</text>
<line x1="1200" y1="2267" x2="1200" y2="2317" style="stroke:white;stroke-width:4" />
<text font-size="3.0em" x="1045" y="2352" fill="white">Summer</text>
<line x1="133" y1="1200" x2="73" y2="1200" style="stroke:white;stroke-width:4" />
<text font-size="3.0em" x="59" y="1185" fill="white">Fall</text>
<g>	<title>orf1ab gene (21500-21555)</title>
	<line x1="1208" y1="1039" x2="1208" y2="1027" style="stroke:grey;stroke-width:8" />
</g><g>	<title>S gene (21563-25384)</title>
	<line x1="1208" y1="1025" x2="1208" y2="174" style="stroke:gainsboro;stroke-width:8" />
</g><g>	<title>ORF3a gene (25393-25500)</title>
	<line x1="1208" y1="172" x2="1208" y2="148" style="stroke:grey;stroke-width:8" />
</g><line x1="1200" y1="148.13140311804" x2="1200" y2="1039" style="stroke:white;stroke-width:3" />
<line x1="1204" y1="148.13140311804" x2="1210" y2="148.13140311804" style="stroke:white;stroke-width:2" />
<line x1="1210" y1="148.13140311804" x2="1215" y2="123.13140311804" style="stroke:white;stroke-width:2" />
<line x1="1204" y1="1039" x2="1210" y2="1039" style="stroke:white;stroke-width:2" />
<line x1="1210" y1="1039" x2="1215" y2="1064" style="stroke:white;stroke-width:2" />
<text font-size="2.0em" x="1215" y="123.13140311804" fill="white">25.5 kb</text>
<text font-size="2.0em" x="1215" y="1084" fill="white">21.5 kb</text>
<text font-size="2.5em" x="110" y="175" fill="white">Top countries</text>
<circle cx="60" cy="205" r="8" style="fill:cyan;stroke:black;stroke-width:0;fill-opacity:0.6;" />
<text font-size="2.0em" x="75" y="215" fill="white">Tunisia</text>
<circle cx="60" cy="260" r="1.20411998265592" style="fill:white;stroke:lightgrey;stroke-width:0.2;" />
<circle cx="101" cy="260" r="4" style="fill:white;stroke:lightgrey;stroke-width:0.2;" />
<circle cx="142" cy="260" r="8" style="fill:white;stroke:lightgrey;stroke-width:0.2;" />
<circle cx="183" cy="260" r="12" style="fill:white;stroke:lightgrey;stroke-width:0.2;" />
<circle cx="224" cy="260" r="16" style="fill:white;stroke:lightgrey;stroke-width:0.2;" />
<text font-size="2.0em" x="50" y="305" fill="white">2      10        100        1k        10k</text>
<text font-size="2.0em" x="50" y="335" fill="white">genome samples</text>
<g>
	<title>2021-01-06 Tunisia: 4 samples</title>
	<line x1="1202.1" y1="1180.1" x2="1202.4" y2="1177.0" style="stroke:cyan;stroke-width:0.8;stroke-opacity:50%;" />
</g>
<g>
	<title>2021-01-06  C22227T  Tunisia=2 [50.0%]  surface glycoprotein, A222V</title>
	<circle cx="1233.8" cy="878.4" r="1.2" style="fill:cyan;stroke:black;stroke-width:0;fill-opacity:0.25;"/>
</g>
<g>
	<title>2021-01-06  A23403G  Tunisia=4 [100.0%]  surface glycoprotein, D614G</title>
	<circle cx="1261.2" cy="617.9" r="2.4" style="fill:cyan;stroke:black;stroke-width:0;fill-opacity:0.25;"/>
</g>
<g>
	<title>2021-01-08 Tunisia: 2 samples</title>
	<line x1="1202.8" y1="1180.2" x2="1203.1" y2="1178.1" style="stroke:cyan;stroke-width:0.8;stroke-opacity:50%;" />
</g>
<g>
	<title>2021-01-08  C22227T  Tunisia=2 [100.0%]  surface glycoprotein, A222V</title>
	<circle cx="1245.0" cy="879.8" r="1.2" style="fill:cyan;stroke:black;stroke-width:0;fill-opacity:0.25;"/>
</g>
<g>
	<title>2021-01-08  A23403G  Tunisia=2 [100.0%]  surface glycoprotein, D614G</title>
	<circle cx="1281.5" cy="620.4" r="1.2" style="fill:cyan;stroke:black;stroke-width:0;fill-opacity:0.25;"/>
</g>
<rect x="1865" y="140" width="500" height="135" rx="15" style="fill:gainsboro;stroke-width:0;fill-opacity:0.15;" />
<text font-size="1.8em" x="1880" y="170" fill="white">Data from 1 countries in Africa</text>
<text font-size="1.8em" x="1880" y="200" fill="white">Genomes/year≥10  Genomes/day≥2</text>
<text font-size="1.8em" x="1880" y="230" fill="white">2 distinct missense variants mapped</text>
<text font-size="1.8em" x="1880" y="260" fill="white">Updated 2021-01-21</text>
</svg>
