<?xml version="1.0" encoding="UTF-8" standalone="yes"?>
<!DOCTYPE svg PUBLIC "-//W3C//DTD SVG 1.0//EN" "http://www.w3.org/TR/2001/REC-SVG-20010904/DTD/svg10.dtd">
<svg width="2400" height="2400" xmlns="http://www.w3.org/2000/svg" style="background-color:black">
<circle cx="1200" cy="1200" r="1046" style="fill:grey;stroke:black;stroke-width:0;fill-opacity:0.085;"/>
<circle cx="1200" cy="1200" r="1022" style="fill:black;stroke:black;stroke-width:0;fill-opacity:1;"/>
<circle cx="1200" cy="1200" r="1020" style="fill:gainsboro;stroke:black;stroke-width:0;fill-opacity:0.085;"/>
<circle cx="1200" cy="1200" r="169" style="fill:black;stroke:black;stroke-width:0;fill-opacity:1;"/>
<circle cx="1200" cy="1200" r="168" style="fill:grey;stroke:black;stroke-width:0;fill-opacity:0.085;"/>
<circle cx="1200" cy="1200" r="155" style="fill:black;stroke:black;stroke-width:0;fill-opacity:1;"/>
<text font-size="4.5em" x="70" y="80" fill="white">SARS-CoV-2</text>
<text font-size="3.5em" x="70" y="140" fill="white">2021 mutation timemap</text>
<text font-size="2.5em" x="70" y="190" fill="white">GISAID update 2021-01-15</text>
<text font-size="2.0em" x="70" y="230" fill="white">@WarrenRene | ntedit v1.3.4</text>
<line x1="1200" y1="89.1314031180401" x2="1200" y2="139.13140311804" style="stroke:white;stroke-width:4" />
<text font-size="3.0em" x="1176" y="79.1314031180401" fill="white">Winter</text>
<line x1="2261" y1="1200" x2="2311" y2="1200" style="stroke:white;stroke-width:4" />
<text font-size="3.0em" x="2261" y="1245" fill="white">Spring</text>
<line x1="1200" y1="2261" x2="1200" y2="2311" style="stroke:white;stroke-width:4" />
<text font-size="3.0em" x="1045" y="2346" fill="white">Summer</text>
<line x1="139" y1="1200" x2="79" y2="1200" style="stroke:white;stroke-width:4" />
<text font-size="3.0em" x="65" y="1185" fill="white">Fall</text>
<g>	<title>orf1ab gene (21500-21555)</title>
	<line x1="1208" y1="1045" x2="1208" y2="1032" style="stroke:grey;stroke-width:8" />
</g><g>	<title>S gene (21563-25384)</title>
	<line x1="1208" y1="1031" x2="1208" y2="180" style="stroke:gainsboro;stroke-width:8" />
</g><g>	<title>ORF3a gene (25393-25500)</title>
	<line x1="1208" y1="178" x2="1208" y2="154" style="stroke:grey;stroke-width:8" />
</g><line x1="1200" y1="154.13140311804" x2="1200" y2="1045" style="stroke:white;stroke-width:3" />
<line x1="1204" y1="154.13140311804" x2="1210" y2="154.13140311804" style="stroke:white;stroke-width:2" />
<line x1="1210" y1="154.13140311804" x2="1215" y2="129.13140311804" style="stroke:white;stroke-width:2" />
<line x1="1204" y1="1045" x2="1210" y2="1045" style="stroke:white;stroke-width:2" />
<line x1="1210" y1="1045" x2="1215" y2="1070" style="stroke:white;stroke-width:2" />
<text font-size="2.0em" x="1215" y="129.13140311804" fill="white">25.5 kb</text>
<text font-size="2.0em" x="1215" y="1090" fill="white">21.5 kb</text>
<text font-size="3.0em" x="1980" y="2060" fill="white">Top Continents</text>
<circle cx="1940" cy="2090" r="8" style="fill:cyan;stroke:black;stroke-width:0;fill-opacity:0.6;" />
<text font-size="2.0em" x="1955" y="2100" fill="white">Europe</text>
<circle cx="1940" cy="2120" r="8" style="fill:fuchsia;stroke:black;stroke-width:0;fill-opacity:0.6;" />
<text font-size="2.0em" x="1955" y="2130" fill="white">North America</text>
<circle cx="1940" cy="2165" r="1.20411998265592" style="fill:white;stroke:lightgrey;stroke-width:0.2;" />
<circle cx="1993" cy="2165" r="4" style="fill:white;stroke:lightgrey;stroke-width:0.2;" />
<circle cx="2046" cy="2165" r="8" style="fill:white;stroke:lightgrey;stroke-width:0.2;" />
<circle cx="2099" cy="2165" r="12" style="fill:white;stroke:lightgrey;stroke-width:0.2;" />
<circle cx="2152" cy="2165" r="16" style="fill:white;stroke:lightgrey;stroke-width:0.2;" />
<text font-size="2.5em" x="1930" y="2220" fill="white">2      10        100        1k        10k  genomes</text>
<text font-size="2.5em" x="1085" y="1180" fill="white">MN908947 vs.</text>
<text font-size="2.5em" x="1085" y="1220" fill="white">1,910  viral</text>
<text font-size="2.5em" x="1135" y="1260" fill="white">genomes</text>
<g>
	<title>2021-01-02  ATTA21993A  Europe=2 [1.2%]  surface glycoprotein, Y145H</title>
	<circle cx="1209.27285068287" cy="934.460299190695" r="1.20411998265592" style="fill:cyan;stroke:black;stroke-width:0;fill-opacity:0.25;"/>
</g>
<g>
	<title>2021-01-04  ATTA21993A  Europe=5 [0.5%]  surface glycoprotein, Y145H</title>
	<circle cx="1218.53440382556" cy="934.945676623615" r="2.79588001734407" style="fill:cyan;stroke:black;stroke-width:0;fill-opacity:0.25;"/>
</g>
<text font-size="1.8em" x="70" y="300" fill="white">Distinct missense variants mapped: 1</text>
<text font-size="1.8em" x="70" y="330" fill="white">Genomes/year≥10, Genomes/day≥2</text>
<text font-size="1.8em" x="70" y="360" fill="white">Data from 6 continents</text>
</svg>
