<?xml version="1.0" encoding="UTF-8" standalone="yes"?>
<!DOCTYPE svg PUBLIC "-//W3C//DTD SVG 1.0//EN" "http://www.w3.org/TR/2001/REC-SVG-20010904/DTD/svg10.dtd">
<svg width="2400" height="2400" xmlns="http://www.w3.org/2000/svg" style="background-color:black">
<defs>
	<style type="text/css"><![CDATA[
	.sb {
	stroke-width:0.8;
	stroke-opacity:50%;
	}
	.cv {
	stroke: none;
	fill-opacity:0.25;
	}
	]]></style>
</defs>
<circle cx="1200" cy="1200" r="1046" style="fill:grey;stroke:black;stroke-width:0;fill-opacity:0.085;"/>
<circle cx="1200" cy="1200" r="1022" style="fill:black;stroke:black;stroke-width:0;fill-opacity:1;"/>
<circle cx="1200" cy="1200" r="1020" style="fill:gainsboro;stroke:black;stroke-width:0;fill-opacity:0.085;"/>
<circle cx="1200" cy="1200" r="169" style="fill:black;stroke:black;stroke-width:0;fill-opacity:1;"/>
<circle cx="1200" cy="1200" r="168" style="fill:grey;stroke:black;stroke-width:0;fill-opacity:0.085;"/>
<circle cx="1200" cy="1200" r="155" style="fill:black;stroke:black;stroke-width:0;fill-opacity:1;"/>
<text font-size="4.0em" x="50" y="60" fill="white">SARS-CoV-2 mutations 2021 timemap</text>
<text font-size="2.8em" x="50" y="105" fill="white">Genbank MN908947 vs 6,036 GISAID genomes</text>
<line x1="1200" y1="89.1314031180401" x2="1200" y2="139.13140311804" style="stroke:white;stroke-width:4" />
<text font-size="3.0em" x="1176" y="79.1314031180401" fill="white">Winter</text>
<line x1="2261" y1="1200" x2="2311" y2="1200" style="stroke:white;stroke-width:4" />
<text font-size="3.0em" x="2261" y="1245" fill="white">Spring</text>
<line x1="1200" y1="2261" x2="1200" y2="2311" style="stroke:white;stroke-width:4" />
<text font-size="3.0em" x="1045" y="2346" fill="white">Summer</text>
<line x1="139" y1="1200" x2="79" y2="1200" style="stroke:white;stroke-width:4" />
<text font-size="3.0em" x="65" y="1185" fill="white">Fall</text>
<g>	<title>orf1ab gene (21500-21555)</title>
	<line x1="1208" y1="1045" x2="1208" y2="1032" style="stroke:grey;stroke-width:8" />
</g><g>	<title>S gene (21563-25384)</title>
	<line x1="1208" y1="1031" x2="1208" y2="180" style="stroke:gainsboro;stroke-width:8" />
</g><g>	<title>ORF3a gene (25393-25500)</title>
	<line x1="1208" y1="178" x2="1208" y2="154" style="stroke:grey;stroke-width:8" />
</g><line x1="1200" y1="154.13140311804" x2="1200" y2="1045" style="stroke:white;stroke-width:3" />
<line x1="1204" y1="154.13140311804" x2="1210" y2="154.13140311804" style="stroke:white;stroke-width:2" />
<line x1="1210" y1="154.13140311804" x2="1215" y2="129.13140311804" style="stroke:white;stroke-width:2" />
<line x1="1204" y1="1045" x2="1210" y2="1045" style="stroke:white;stroke-width:2" />
<line x1="1210" y1="1045" x2="1215" y2="1070" style="stroke:white;stroke-width:2" />
<text font-size="2.0em" x="1215" y="129.13140311804" fill="white">25.5 kb</text>
<text font-size="2.0em" x="1215" y="1090" fill="white">21.5 kb</text>
<text font-size="2.5em" x="75" y="175" fill="white">Continents</text>
<circle cx="60" cy="205" r="8" style="fill:cyan;stroke:black;stroke-width:0;fill-opacity:0.6;" />
<text font-size="2.0em" x="75" y="215" fill="white">Europe</text>
<circle cx="60" cy="235" r="8" style="fill:fuchsia;stroke:black;stroke-width:0;fill-opacity:0.6;" />
<text font-size="2.0em" x="75" y="245" fill="white">North America</text>
<circle cx="60" cy="265" r="8" style="fill:white;stroke:black;stroke-width:0;fill-opacity:0.6;" />
<text font-size="2.0em" x="75" y="275" fill="white">Oceania</text>
<circle cx="60" cy="295" r="8" style="fill:orange;stroke:black;stroke-width:0;fill-opacity:0.6;" />
<text font-size="2.0em" x="75" y="305" fill="white">Asia</text>
<circle cx="60" cy="325" r="8" style="fill:yellow;stroke:black;stroke-width:0;fill-opacity:0.6;" />
<text font-size="2.0em" x="75" y="335" fill="white">South America</text>
<circle cx="60" cy="380" r="1.20411998265592" style="fill:white;stroke:lightgrey;stroke-width:0.2;" />
<circle cx="101" cy="380" r="4" style="fill:white;stroke:lightgrey;stroke-width:0.2;" />
<circle cx="142" cy="380" r="8" style="fill:white;stroke:lightgrey;stroke-width:0.2;" />
<circle cx="183" cy="380" r="12" style="fill:white;stroke:lightgrey;stroke-width:0.2;" />
<circle cx="224" cy="380" r="16" style="fill:white;stroke:lightgrey;stroke-width:0.2;" />
<text font-size="2.0em" x="50" y="425" fill="white">2      10        100        1k        10k</text>
<text font-size="2.0em" x="50" y="455" fill="white">genome samples</text>
<g>
	<title>2021-01-01 Europe=71</title>
	<line x1="1200" y1="1180" x2="1200" y2="1172" style="stroke:cyan;" class="sb" />
</g>
<g>
	<title>2021-01-01 North America=40</title>
	<line x1="1200" y1="1172" x2="1201" y2="1164" style="stroke:fuchsia;" class="sb" />
</g>
<g>
	<title>2021-01-01 Oceania=11</title>
	<line x1="1201" y1="1164" x2="1201" y2="1160" style="stroke:white;" class="sb" />
</g>
<g>
	<title>2021-01-01 Asia=8</title>
	<line x1="1201" y1="1160" x2="1201" y2="1155" style="stroke:orange;" class="sb" />
</g>
<g>
	<title>2021-01-01  ATTA21993A  Europe=5 [7.0%]  surface glycoprotein, Y145H</title>
	<circle cx="1205" cy="934" r="3" style="fill:cyan;" class="cv" />
</g>
<g>
	<title>2021-01-02 Europe=228</title>
	<line x1="1201" y1="1180" x2="1201" y2="1169" style="stroke:cyan;" class="sb" />
</g>
<g>
	<title>2021-01-02 North America=112</title>
	<line x1="1201" y1="1169" x2="1201" y2="1160" style="stroke:fuchsia;" class="sb" />
</g>
<g>
	<title>2021-01-02 Oceania=5</title>
	<line x1="1201" y1="1160" x2="1201" y2="1157" style="stroke:white;" class="sb" />
</g>
<g>
	<title>2021-01-02 Asia=3</title>
	<line x1="1201" y1="1157" x2="1202" y2="1154" style="stroke:orange;" class="sb" />
</g>
<g>
	<title>2021-01-02  ATTA21993A  Europe=24 [10.5%]  surface glycoprotein, Y145H</title>
	<circle cx="1209" cy="934" r="6" style="fill:cyan;" class="cv" />
</g>
<g>
	<title>2021-01-03 Europe=134</title>
	<line x1="1201" y1="1180" x2="1202" y2="1170" style="stroke:cyan;" class="sb" />
</g>
<g>
	<title>2021-01-03 North America=78</title>
	<line x1="1202" y1="1170" x2="1202" y2="1162" style="stroke:fuchsia;" class="sb" />
</g>
<g>
	<title>2021-01-03 Oceania=4</title>
	<line x1="1202" y1="1162" x2="1202" y2="1159" style="stroke:white;" class="sb" />
</g>
<g>
	<title>2021-01-03  ATTA21993A  Europe=21 [15.7%]  surface glycoprotein, Y145H</title>
	<circle cx="1214" cy="935" r="5" style="fill:cyan;" class="cv" />
</g>
<g>
	<title>2021-01-03  ATTA21993A  North America=3 [3.8%]  surface glycoprotein, Y145H</title>
	<circle cx="1214" cy="935" r="2" style="fill:fuchsia;" class="cv" />
</g>
<g>
	<title>2021-01-04 Europe=2441</title>
	<line x1="1201" y1="1180" x2="1202" y2="1165" style="stroke:cyan;" class="sb" />
</g>
<g>
	<title>2021-01-04 North America=281</title>
	<line x1="1202" y1="1165" x2="1203" y2="1154" style="stroke:fuchsia;" class="sb" />
</g>
<g>
	<title>2021-01-04 Oceania=3</title>
	<line x1="1203" y1="1154" x2="1203" y2="1151" style="stroke:white;" class="sb" />
</g>
<g>
	<title>2021-01-04 Asia=11</title>
	<line x1="1203" y1="1151" x2="1204" y2="1146" style="stroke:orange;" class="sb" />
</g>
<g>
	<title>2021-01-04  TT21576T  Europe=6 [0.2%]  surface glycoprotein, V6F</title>
	<circle cx="1212" cy="1028" r="3" style="fill:cyan;" class="cv" />
</g>
<g>
	<title>2021-01-04  ATTA21993A  Europe=106 [4.3%]  surface glycoprotein, Y145H</title>
	<circle cx="1218" cy="935" r="8" style="fill:cyan;" class="cv" />
</g>
<g>
	<title>2021-01-04  ATTA21993A  Europe=106 [4.3%] North America=3 [1.1%]  surface glycoprotein, Y145H</title>
	<circle cx="1218" cy="935" r="2" style="fill:fuchsia;" class="cv" />
</g>
<g>
	<title>2021-01-04  ATTA22190A  Europe=11 [0.5%]  surface glycoprotein, I210N</title>
	<circle cx="1221" cy="891" r="4" style="fill:cyan;" class="cv" />
</g>
<g>
	<title>2021-01-05 Europe=226</title>
	<line x1="1202" y1="1180" x2="1203" y2="1170" style="stroke:cyan;" class="sb" />
</g>
<g>
	<title>2021-01-05 North America=149</title>
	<line x1="1203" y1="1170" x2="1203" y2="1160" style="stroke:fuchsia;" class="sb" />
</g>
<g>
	<title>2021-01-05 Asia=4</title>
	<line x1="1203" y1="1160" x2="1204" y2="1157" style="stroke:orange;" class="sb" />
</g>
<g>
	<title>2021-01-05  ATTA21993A  Europe=107 [47.3%]  surface glycoprotein, Y145H</title>
	<circle cx="1223" cy="935" r="8" style="fill:cyan;" class="cv" />
</g>
<g>
	<title>2021-01-05  ATTA21993A  North America=2 [1.3%]  surface glycoprotein, Y145H</title>
	<circle cx="1223" cy="935" r="1" style="fill:fuchsia;" class="cv" />
</g>
<g>
	<title>2021-01-06 Europe=101</title>
	<line x1="1202" y1="1180" x2="1203" y2="1171" style="stroke:cyan;" class="sb" />
</g>
<g>
	<title>2021-01-06 North America=182</title>
	<line x1="1203" y1="1171" x2="1204" y2="1161" style="stroke:fuchsia;" class="sb" />
</g>
<g>
	<title>2021-01-06 Oceania=2</title>
	<line x1="1204" y1="1161" x2="1204" y2="1159" style="stroke:white;" class="sb" />
</g>
<g>
	<title>2021-01-06  ATTA21993A  Europe=44 [43.6%]  surface glycoprotein, Y145H</title>
	<circle cx="1227" cy="936" r="7" style="fill:cyan;" class="cv" />
</g>
<g>
	<title>2021-01-06  ATTA21993A  North America=2 [1.1%]  surface glycoprotein, Y145H</title>
	<circle cx="1227" cy="936" r="1" style="fill:fuchsia;" class="cv" />
</g>
<g>
	<title>2021-01-07 Europe=120</title>
	<line x1="1202" y1="1180" x2="1204" y2="1171" style="stroke:cyan;" class="sb" />
</g>
<g>
	<title>2021-01-07 North America=115</title>
	<line x1="1204" y1="1171" x2="1205" y2="1162" style="stroke:fuchsia;" class="sb" />
</g>
<g>
	<title>2021-01-07 Asia=3</title>
	<line x1="1205" y1="1162" x2="1205" y2="1159" style="stroke:orange;" class="sb" />
</g>
<g>
	<title>2021-01-07 South America=2</title>
	<line x1="1205" y1="1159" x2="1205" y2="1157" style="stroke:yellow;" class="sb" />
</g>
<g>
	<title>2021-01-07  ATTA21993A  Europe=53 [44.2%]  surface glycoprotein, Y145H</title>
	<circle cx="1232" cy="936" r="7" style="fill:cyan;" class="cv" />
</g>
<g>
	<title>2021-01-07  ATTA21993A  North America=2 [1.7%]  surface glycoprotein, Y145H</title>
	<circle cx="1232" cy="936" r="1" style="fill:fuchsia;" class="cv" />
</g>
<g>
	<title>2021-01-07  ATTA21993A  North America=2 [1.7%] South America=2 [100.0%]  surface glycoprotein, Y145H</title>
	<circle cx="1232" cy="936" r="1" style="fill:yellow;" class="cv" />
</g>
<g>
	<title>2021-01-08 Europe=162</title>
	<line x1="1203" y1="1180" x2="1204" y2="1170" style="stroke:cyan;" class="sb" />
</g>
<g>
	<title>2021-01-08 North America=121</title>
	<line x1="1204" y1="1170" x2="1205" y2="1161" style="stroke:fuchsia;" class="sb" />
</g>
<g>
	<title>2021-01-08 Oceania=3</title>
	<line x1="1205" y1="1161" x2="1206" y2="1158" style="stroke:white;" class="sb" />
</g>
<g>
	<title>2021-01-08 Asia=2</title>
	<line x1="1206" y1="1158" x2="1206" y2="1156" style="stroke:orange;" class="sb" />
</g>
<g>
	<title>2021-01-08  ATTA21993A  Europe=93 [57.4%]  surface glycoprotein, Y145H</title>
	<circle cx="1236" cy="937" r="8" style="fill:cyan;" class="cv" />
</g>
<g>
	<title>2021-01-09 Europe=73</title>
	<line x1="1203" y1="1180" x2="1204" y2="1172" style="stroke:cyan;" class="sb" />
</g>
<g>
	<title>2021-01-09 North America=34</title>
	<line x1="1204" y1="1172" x2="1205" y2="1165" style="stroke:fuchsia;" class="sb" />
</g>
<g>
	<title>2021-01-09 Oceania=4</title>
	<line x1="1205" y1="1165" x2="1206" y2="1162" style="stroke:white;" class="sb" />
</g>
<g>
	<title>2021-01-09 Asia=6</title>
	<line x1="1206" y1="1162" x2="1207" y2="1158" style="stroke:orange;" class="sb" />
</g>
<g>
	<title>2021-01-09  ATTA21993A  Europe=31 [42.5%]  surface glycoprotein, Y145H</title>
	<circle cx="1241" cy="937" r="6" style="fill:cyan;" class="cv" />
</g>
<g>
	<title>2021-01-10 Europe=96</title>
	<line x1="1203" y1="1180" x2="1205" y2="1171" style="stroke:cyan;" class="sb" />
</g>
<g>
	<title>2021-01-10 North America=23</title>
	<line x1="1205" y1="1171" x2="1206" y2="1165" style="stroke:fuchsia;" class="sb" />
</g>
<g>
	<title>2021-01-10 Oceania=4</title>
	<line x1="1206" y1="1165" x2="1207" y2="1162" style="stroke:white;" class="sb" />
</g>
<g>
	<title>2021-01-10 Asia=4</title>
	<line x1="1207" y1="1162" x2="1207" y2="1159" style="stroke:orange;" class="sb" />
</g>
<g>
	<title>2021-01-10  ATTA21993A  Europe=90 [93.8%]  surface glycoprotein, Y145H</title>
	<circle cx="1245" cy="938" r="8" style="fill:cyan;" class="cv" />
</g>
<g>
	<title>2021-01-11 Europe=934</title>
	<line x1="1204" y1="1180" x2="1206" y2="1167" style="stroke:cyan;" class="sb" />
</g>
<g>
	<title>2021-01-11 North America=43</title>
	<line x1="1206" y1="1167" x2="1208" y2="1160" style="stroke:fuchsia;" class="sb" />
</g>
<g>
	<title>2021-01-11 Oceania=2</title>
	<line x1="1208" y1="1160" x2="1208" y2="1158" style="stroke:white;" class="sb" />
</g>
<g>
	<title>2021-01-11 Asia=2</title>
	<line x1="1208" y1="1158" x2="1208" y2="1156" style="stroke:orange;" class="sb" />
</g>
<g>
	<title>2021-01-11  TT21576T  Europe=2 [0.2%]  surface glycoprotein, V6F</title>
	<circle cx="1233" cy="1030" r="1" style="fill:cyan;" class="cv" />
</g>
<g>
	<title>2021-01-11  ATTA21993A  Europe=131 [14.0%]  surface glycoprotein, Y145H</title>
	<circle cx="1250" cy="939" r="8" style="fill:cyan;" class="cv" />
</g>
<g>
	<title>2021-01-11  ATTA22190A  Europe=4 [0.4%]  surface glycoprotein, I210N</title>
	<circle cx="1258" cy="896" r="2" style="fill:cyan;" class="cv" />
</g>
<g>
	<title>2021-01-12 Europe=10</title>
	<line x1="1204" y1="1180" x2="1205" y2="1176" style="stroke:cyan;" class="sb" />
</g>
<g>
	<title>2021-01-12 North America=32</title>
	<line x1="1205" y1="1176" x2="1206" y2="1169" style="stroke:fuchsia;" class="sb" />
</g>
<g>
	<title>2021-01-12 Oceania=2</title>
	<line x1="1206" y1="1169" x2="1207" y2="1167" style="stroke:white;" class="sb" />
</g>
<g>
	<title>2021-01-12 Asia=3</title>
	<line x1="1207" y1="1167" x2="1207" y2="1164" style="stroke:orange;" class="sb" />
</g>
<g>
	<title>2021-01-13 Europe=8</title>
	<line x1="1204" y1="1180" x2="1205" y2="1176" style="stroke:cyan;" class="sb" />
</g>
<g>
	<title>2021-01-13 North America=13</title>
	<line x1="1205" y1="1176" x2="1207" y2="1171" style="stroke:fuchsia;" class="sb" />
</g>
<g>
	<title>2021-01-13 Asia=5</title>
	<line x1="1207" y1="1171" x2="1207" y2="1168" style="stroke:orange;" class="sb" />
</g>
<g>
	<title>2021-01-13  ATTA21993A  Europe=3 [37.5%]  surface glycoprotein, Y145H</title>
	<circle cx="1259" cy="941" r="2" style="fill:cyan;" class="cv" />
</g>
<g>
	<title>2021-01-14 Europe=3</title>
	<line x1="1205" y1="1181" x2="1205" y2="1178" style="stroke:cyan;" class="sb" />
</g>
<g>
	<title>2021-01-14 North America=23</title>
	<line x1="1205" y1="1178" x2="1207" y2="1172" style="stroke:fuchsia;" class="sb" />
</g>
<g>
	<title>2021-01-14 Oceania=2</title>
	<line x1="1207" y1="1172" x2="1207" y2="1170" style="stroke:white;" class="sb" />
</g>
<g>
	<title>2021-01-14  ATTA21993A  Europe=2 [66.7%]  surface glycoprotein, Y145H</title>
	<circle cx="1263" cy="942" r="1" style="fill:cyan;" class="cv" />
</g>
<g>
	<title>2021-01-15 North America=12</title>
	<line x1="1205" y1="1181" x2="1206" y2="1176" style="stroke:fuchsia;" class="sb" />
</g>
<g>
	<title>2021-01-15 Oceania=6</title>
	<line x1="1206" y1="1176" x2="1207" y2="1172" style="stroke:white;" class="sb" />
</g>
<g>
	<title>2021-01-15 Asia=3</title>
	<line x1="1207" y1="1172" x2="1208" y2="1170" style="stroke:orange;" class="sb" />
</g>
<g>
	<title>2021-01-15  ATTA21993A  Oceania=2 [33.3%]  surface glycoprotein, Y145H</title>
	<circle cx="1268" cy="943" r="1" style="fill:white;" class="cv" />
</g>
<g>
	<title>2021-01-16 Europe=3</title>
	<line x1="1205" y1="1181" x2="1206" y2="1178" style="stroke:cyan;" class="sb" />
</g>
<g>
	<title>2021-01-16 Asia=4</title>
	<line x1="1206" y1="1178" x2="1207" y2="1175" style="stroke:orange;" class="sb" />
</g>
<g>
	<title>2021-01-16  ATTA21993A  Asia=2 [50.0%]  surface glycoprotein, Y145H</title>
	<circle cx="1272" cy="944" r="1" style="fill:orange;" class="cv" />
</g>
<g>
	<title>2021-01-17 Europe=9</title>
	<line x1="1206" y1="1181" x2="1207" y2="1177" style="stroke:cyan;" class="sb" />
</g>
<g>
	<title>2021-01-17 Asia=6</title>
	<line x1="1207" y1="1177" x2="1208" y2="1173" style="stroke:orange;" class="sb" />
</g>
<g>
	<title>2021-01-17  ATTA21993A  Europe=5 [55.6%]  surface glycoprotein, Y145H</title>
	<circle cx="1277" cy="946" r="3" style="fill:cyan;" class="cv" />
</g>
<g>
	<title>2021-01-18 North America=3</title>
	<line x1="1206" y1="1181" x2="1207" y2="1178" style="stroke:fuchsia;" class="sb" />
</g>
<rect x="1865" y="140" width="500" height="135" rx="15" style="fill:gainsboro;stroke-width:0;fill-opacity:0.15;" />
<text font-size="1.8em" x="1880" y="170" fill="white">Data from 6 continents</text>
<text font-size="1.8em" x="1880" y="200" fill="white">Genomes/year≥10  Genomes/day≥2</text>
<text font-size="1.8em" x="1880" y="230" fill="white">3 distinct missense variants mapped</text>
<text font-size="1.8em" x="1880" y="260" fill="white">Updated 2021-01-23</text>
</svg>
