<?xml version="1.0" encoding="UTF-8" standalone="yes"?>
<!DOCTYPE svg PUBLIC "-//W3C//DTD SVG 1.0//EN" "http://www.w3.org/TR/2001/REC-SVG-20010904/DTD/svg10.dtd">
<svg width="2400" height="2400" xmlns="http://www.w3.org/2000/svg" style="background-color:black">
<circle cx="1200" cy="1200" r="1052" style="fill:grey;stroke:black;stroke-width:0;fill-opacity:0.085;"/>
<circle cx="1200" cy="1200" r="1028" style="fill:black;stroke:black;stroke-width:0;fill-opacity:1;"/>
<circle cx="1200" cy="1200" r="1026" style="fill:gainsboro;stroke:black;stroke-width:0;fill-opacity:0.085;"/>
<circle cx="1200" cy="1200" r="175" style="fill:black;stroke:black;stroke-width:0;fill-opacity:1;"/>
<circle cx="1200" cy="1200" r="173" style="fill:grey;stroke:black;stroke-width:0;fill-opacity:0.085;"/>
<circle cx="1200" cy="1200" r="161" style="fill:black;stroke:black;stroke-width:0;fill-opacity:1;"/>
<text font-size="4.5em" x="70" y="80" fill="white">SARS-CoV-2</text>
<text font-size="3.5em" x="70" y="140" fill="white">2021 mutation timemap</text>
<text font-size="2.5em" x="70" y="190" fill="white">GISAID update 2021-01-15</text>
<text font-size="2.0em" x="70" y="230" fill="white">@WarrenRene | ntedit v1.3.4</text>
<line x1="1200" y1="83.1314031180401" x2="1200" y2="133.13140311804" style="stroke:white;stroke-width:4" />
<text font-size="3.0em" x="1176" y="73.1314031180401" fill="white">Winter</text>
<line x1="2267" y1="1200" x2="2317" y2="1200" style="stroke:white;stroke-width:4" />
<text font-size="3.0em" x="2267" y="1245" fill="white">Spring</text>
<line x1="1200" y1="2267" x2="1200" y2="2317" style="stroke:white;stroke-width:4" />
<text font-size="3.0em" x="1045" y="2352" fill="white">Summer</text>
<line x1="133" y1="1200" x2="73" y2="1200" style="stroke:white;stroke-width:4" />
<text font-size="3.0em" x="59" y="1185" fill="white">Fall</text>
<g>	<title>orf1ab gene (21500-21555)</title>
	<line x1="1208" y1="1039" x2="1208" y2="1027" style="stroke:grey;stroke-width:8" />
</g><g>	<title>S gene (21563-25384)</title>
	<line x1="1208" y1="1025" x2="1208" y2="174" style="stroke:gainsboro;stroke-width:8" />
</g><g>	<title>ORF3a gene (25393-25500)</title>
	<line x1="1208" y1="172" x2="1208" y2="148" style="stroke:grey;stroke-width:8" />
</g><line x1="1200" y1="148.13140311804" x2="1200" y2="1039" style="stroke:white;stroke-width:3" />
<line x1="1204" y1="148.13140311804" x2="1210" y2="148.13140311804" style="stroke:white;stroke-width:2" />
<line x1="1210" y1="148.13140311804" x2="1215" y2="123.13140311804" style="stroke:white;stroke-width:2" />
<line x1="1204" y1="1039" x2="1210" y2="1039" style="stroke:white;stroke-width:2" />
<line x1="1210" y1="1039" x2="1215" y2="1064" style="stroke:white;stroke-width:2" />
<text font-size="2.0em" x="1215" y="123.13140311804" fill="white">25.5 kb</text>
<text font-size="2.0em" x="1215" y="1084" fill="white">21.5 kb</text>
<text font-size="3.0em" x="1980" y="1960" fill="white">Top Countries</text>
<circle cx="1940" cy="1990" r="8" style="fill:cyan;stroke:black;stroke-width:0;fill-opacity:0.6;" />
<text font-size="2.0em" x="1955" y="2000" fill="white">Tunisia</text>
<circle cx="1940" cy="2035" r="1.20411998265592" style="fill:white;stroke:lightgrey;stroke-width:0.2;" />
<circle cx="1993" cy="2035" r="4.1655707406329" style="fill:white;stroke:lightgrey;stroke-width:0.2;" />
<circle cx="2046" cy="2035" r="8.01728549513057" style="fill:white;stroke:lightgrey;stroke-width:0.2;" />
<text font-size="2.5em" x="1930" y="2090" fill="white">1      10        100% fraction sampled</text>
<text font-size="2.5em" x="1085" y="1180" fill="white">MN908947 vs.</text>
<text font-size="2.5em" x="1085" y="1220" fill="white">7  viral</text>
<text font-size="2.5em" x="1135" y="1260" fill="white">genomes</text>
<g>
	<title>2021-01-06  C22227T  Tunisia=2 [50.0%]  surface glycoprotein, A222V</title>
	<circle cx="1233.80296852219" cy="878.386237845271" r="6.83028070439175" style="fill:cyan;stroke:black;stroke-width:0;fill-opacity:0.25;"/>
</g>
<g>
	<title>2021-01-06  A23403G  Tunisia=4 [100.0%]  surface glycoprotein, D614G</title>
	<circle cx="1261.1805793914" cy="617.905670149706" r="8.01728549513057" style="fill:cyan;stroke:black;stroke-width:0;fill-opacity:0.25;"/>
</g>
<g>
	<title>2021-01-08  C22227T  Tunisia=2 [100.0%]  surface glycoprotein, A222V</title>
	<circle cx="1245.00653509889" cy="879.761862847938" r="8.01728549513057" style="fill:cyan;stroke:black;stroke-width:0;fill-opacity:0.25;"/>
</g>
<g>
	<title>2021-01-08  A23403G  Tunisia=2 [100.0%]  surface glycoprotein, D614G</title>
	<circle cx="1281.45810898064" cy="620.395437716515" r="8.01728549513057" style="fill:cyan;stroke:black;stroke-width:0;fill-opacity:0.25;"/>
</g>
<text font-size="1.8em" x="70" y="300" fill="white">Distinct missense variants mapped: 2</text>
<text font-size="1.8em" x="70" y="330" fill="white">Genomes/year≥10, Genomes/day≥2</text>
<text font-size="1.8em" x="70" y="360" fill="white">Data from 1 countries in Africa</text>
</svg>
